<?xml version="1.0" encoding="UTF-8" ?>
<!-- Vectorized by Kirilloparma (https://commons.wikimedia.org/wiki/User:Kirilloparma) with Vector Magic (https://vectormagic.com) -->
<svg xmlns="http://www.w3.org/2000/svg" version="1.1" viewBox="148.5 208.37 1503.2 601.44">
<title>Cities: Skylines II horizontal logo</title>
<g id="logo">
<path fill="#000000" d=" M 175.12 340.11 C 250.77 296.22 326.41 252.30 402.05 208.41 C 401.55 251.82 402.08 295.26 401.79 338.67 C 354.75 365.63 307.87 392.87 260.88 419.90 C 260.84 452.61 260.87 485.31 260.86 518.02 C 260.96 534.21 260.61 550.40 261.00 566.58 C 228.80 547.61 196.54 528.75 164.36 509.73 C 155.03 504.11 149.66 493.58 148.56 482.98 C 148.56 449.00 148.57 415.02 148.55 381.04 C 149.34 370.52 152.94 359.97 159.93 351.91 C 164.09 346.95 169.46 343.18 175.12 340.11 Z"/>
<path fill="#000000" d=" M 431.66 208.37 C 508.66 252.84 585.83 296.99 662.86 341.39 C 675.84 349.20 684.32 363.84 684.71 378.98 C 684.79 413.99 684.60 449.01 684.80 484.02 C 616.65 444.94 548.58 405.71 480.45 366.60 C 464.20 357.10 447.70 348.02 431.59 338.31 C 431.85 295.00 431.70 251.68 431.66 208.37 Z"/>
<path fill="#000000" d=" M 833.44 352.10 C 833.56 336.96 846.79 323.39 861.98 323.19 C 902.11 323.10 942.25 323.18 982.39 323.15 C 982.35 337.79 982.40 352.44 982.36 367.08 C 948.80 367.06 915.25 367.08 881.69 367.06 C 881.63 407.23 881.80 447.39 881.61 487.55 C 915.20 487.76 948.81 487.58 982.41 487.64 C 982.38 502.27 982.30 516.90 982.46 531.53 C 945.98 531.69 909.50 531.55 873.03 531.60 C 866.19 531.47 859.05 532.30 852.58 529.59 C 841.35 525.43 833.41 514.00 833.42 502.02 C 833.42 452.05 833.38 402.07 833.44 352.10 Z"/>
<path fill="#000000" d=" M 1002.94 323.19 C 1019.06 323.10 1035.18 323.18 1051.31 323.15 C 1051.35 392.61 1051.20 462.06 1051.39 531.52 C 1035.26 531.70 1019.11 531.56 1002.98 531.59 C 1003.06 462.13 1003.15 392.65 1002.94 323.19 Z"/>
<path fill="#000000" d=" M 1067.81 323.15 C 1124.29 323.15 1180.78 323.15 1237.26 323.15 C 1237.32 338.26 1237.13 353.36 1237.36 368.46 C 1217.13 368.72 1196.88 368.49 1176.64 368.58 C 1176.76 422.92 1176.57 477.26 1176.74 531.60 C 1160.62 531.59 1144.51 531.62 1128.40 531.59 C 1128.58 477.25 1128.34 422.92 1128.51 368.58 C 1108.24 368.42 1087.92 368.85 1067.67 368.37 C 1067.98 353.30 1067.72 338.22 1067.81 323.15 Z"/>
<path fill="#000000" d=" M 1253.85 323.15 C 1269.93 323.15 1286.02 323.15 1302.11 323.16 C 1302.13 381.11 1302.11 439.06 1302.12 497.01 C 1302.02 508.56 1302.31 520.13 1301.97 531.67 C 1285.98 531.56 1269.98 531.54 1253.99 531.68 C 1253.66 462.18 1253.94 392.66 1253.85 323.15 Z"/>
<path fill="#000000" d=" M 1322.11 350.89 C 1322.80 336.12 1336.07 323.21 1350.92 323.18 C 1393.10 323.11 1435.27 323.19 1477.45 323.14 C 1477.50 338.27 1477.33 353.40 1477.53 368.52 C 1441.75 368.67 1405.95 368.47 1370.17 368.62 C 1370.37 380.65 1370.27 392.68 1370.21 404.70 C 1400.26 404.72 1430.32 404.72 1460.37 404.71 C 1460.30 419.82 1460.38 434.94 1460.33 450.05 C 1430.29 449.93 1400.25 449.87 1370.22 450.09 C 1370.30 462.06 1370.32 474.04 1370.21 486.01 C 1405.95 486.25 1441.70 486.07 1477.45 486.11 C 1477.50 501.25 1477.33 516.39 1477.54 531.53 C 1435.36 531.66 1393.18 531.62 1351.00 531.55 C 1335.87 531.50 1322.32 518.15 1322.09 503.02 C 1322.11 452.31 1322.07 401.60 1322.11 350.89 Z"/>
<path fill="#000000" d=" M 1505.88 330.81 C 1511.27 325.78 1518.61 323.11 1525.95 323.14 C 1567.86 323.19 1609.77 323.09 1651.68 323.19 C 1651.60 338.31 1651.55 353.43 1651.70 368.55 C 1615.85 368.64 1580.00 368.49 1544.15 368.62 C 1544.33 380.51 1544.32 392.42 1544.16 404.32 C 1570.32 404.46 1596.48 404.25 1622.64 404.42 C 1635.33 404.71 1647.06 414.21 1650.12 426.50 C 1650.61 428.32 1651.78 429.97 1651.58 431.95 C 1651.61 456.33 1651.71 480.71 1651.53 505.09 C 1650.23 509.30 1649.07 513.72 1646.65 517.50 C 1642.30 524.40 1635.12 529.49 1627.08 531.03 C 1623.10 531.78 1619.04 531.58 1615.03 531.60 C 1575.34 531.61 1535.65 531.59 1495.97 531.61 C 1495.84 516.45 1495.93 501.29 1495.92 486.14 C 1531.59 486.11 1567.27 486.12 1602.94 486.13 C 1602.92 474.09 1602.93 462.05 1602.94 450.01 C 1576.95 449.96 1550.96 450.02 1524.97 449.94 C 1509.59 450.09 1496.16 436.26 1495.93 421.02 C 1495.87 398.35 1495.93 375.68 1495.90 353.02 C 1496.03 344.67 1499.58 336.36 1505.88 330.81 Z"/>
<path fill="#000000" d=" M 572.72 451.55 C 604.44 470.44 636.38 488.97 668.16 507.77 C 678.12 513.35 684.64 524.51 684.72 535.92 C 684.71 569.61 684.72 603.31 684.72 637.01 C 684.67 652.36 676.22 667.35 663.13 675.36 C 586.00 720.24 508.75 764.87 431.66 809.81 C 431.76 766.46 431.75 723.12 431.66 679.78 C 478.65 652.37 525.98 625.50 572.92 598.03 C 572.43 549.21 573.04 500.38 572.72 451.55 Z"/>
<path fill="#000000" d=" M 148.50 534.12 C 179.21 551.33 209.59 569.16 240.16 586.63 C 293.13 617.04 346.05 647.52 399.02 677.93 C 399.98 678.58 401.25 678.93 401.90 679.98 C 401.92 723.22 401.66 766.48 402.03 809.71 C 325.17 765.63 248.39 721.40 171.55 677.27 C 160.30 670.76 152.17 659.20 149.77 646.43 C 149.48 644.26 148.85 642.15 148.59 639.99 C 148.48 604.70 148.66 569.41 148.50 534.12 Z"/>
<path fill="#000000" d=" M 1109.47 580.83 C 1117.36 577.08 1127.33 584.32 1126.21 592.99 C 1126.11 601.57 1115.54 607.22 1108.28 602.81 C 1099.39 598.65 1100.17 584.01 1109.47 580.83 Z"/>
<path fill="#000000" d=" M 911.15 580.75 C 918.27 580.69 925.39 580.76 932.52 580.70 C 932.42 603.82 932.71 626.95 932.37 650.06 C 942.01 638.95 950.79 627.01 960.12 615.58 C 968.66 615.57 977.22 615.58 985.77 615.57 C 975.02 628.47 964.30 641.41 953.77 654.48 C 965.20 667.56 975.91 681.26 987.25 694.43 C 978.47 694.30 969.69 694.49 960.92 694.34 C 951.01 683.29 942.28 671.01 932.37 659.95 C 932.69 671.44 932.44 682.93 932.52 694.42 C 925.38 694.32 918.24 694.46 911.11 694.34 C 911.31 656.48 911.25 618.61 911.15 580.75 Z"/>
<path fill="#000000" d=" M 1070.91 580.74 C 1077.99 580.71 1085.08 580.73 1092.16 580.73 C 1092.16 618.61 1092.14 656.49 1092.17 694.38 C 1085.08 694.39 1077.99 694.40 1070.91 694.38 C 1070.92 656.50 1070.91 618.62 1070.91 580.74 Z"/>
<path fill="#000000" d=" M 1423.81 581.92 C 1427.95 579.91 1432.69 580.98 1437.12 580.73 C 1437.11 618.62 1437.11 656.50 1437.12 694.39 C 1429.97 694.39 1422.83 694.39 1415.69 694.38 C 1415.76 660.91 1415.68 627.45 1415.72 593.98 C 1415.86 588.88 1419.11 583.97 1423.81 581.92 Z"/>
<path fill="#000000" d=" M 1452.86 590.04 C 1454.42 585.22 1458.88 581.44 1463.93 580.81 C 1467.09 580.58 1470.27 580.78 1473.45 580.73 C 1473.41 618.61 1473.38 656.50 1473.46 694.38 C 1466.31 694.37 1459.16 694.44 1452.02 694.34 C 1452.29 663.22 1452.05 632.09 1452.14 600.96 C 1452.26 597.32 1451.63 593.55 1452.86 590.04 Z"/>
<path fill="#000000" d=" M 1110.11 619.15 C 1114.98 617.31 1119.95 615.72 1124.87 613.98 C 1124.80 640.77 1124.70 667.56 1124.92 694.34 C 1117.76 694.43 1110.61 694.37 1103.46 694.38 C 1103.59 672.61 1103.47 650.84 1103.53 629.08 C 1103.42 624.83 1106.04 620.58 1110.11 619.15 Z"/>
<path fill="#000000" d=" M 1247.45 615.57 C 1258.56 612.53 1271.02 613.99 1280.82 620.19 C 1294.99 628.83 1300.55 646.90 1298.02 662.68 C 1278.51 662.60 1259.00 662.69 1239.49 662.64 C 1240.94 668.26 1244.32 673.65 1249.69 676.23 C 1257.92 680.25 1269.47 679.40 1275.34 671.73 C 1282.53 671.59 1289.73 671.71 1296.94 671.67 C 1292.82 681.33 1285.08 689.59 1275.16 693.34 C 1261.18 698.59 1244.27 696.02 1232.71 686.47 C 1217.43 673.75 1214.83 649.68 1224.84 632.98 C 1229.79 624.58 1238.05 618.20 1247.45 615.57 M 1247.84 634.87 C 1243.37 637.62 1240.88 642.56 1239.48 647.46 C 1252.28 647.44 1265.08 647.49 1277.89 647.43 C 1277.00 643.65 1275.76 639.77 1272.95 636.97 C 1266.51 630.36 1255.38 629.94 1247.84 634.87 Z"/>
<path fill="#000000" d=" M 833.43 628.97 C 833.40 621.76 839.84 615.35 847.09 615.59 C 864.31 615.66 881.57 615.38 898.78 615.73 C 898.45 621.73 898.64 627.74 898.68 633.75 C 884.00 633.85 869.32 633.76 854.65 633.79 C 854.67 637.82 854.65 641.85 854.66 645.89 C 865.46 645.93 876.28 645.79 887.08 645.94 C 893.98 646.04 900.10 652.08 900.19 659.01 C 900.23 666.34 900.19 673.69 900.21 681.03 C 900.25 688.05 894.09 694.54 886.98 694.38 C 869.15 694.46 851.32 694.26 833.49 694.47 C 833.27 688.41 833.53 682.33 833.36 676.26 C 848.53 676.18 863.71 676.27 878.89 676.22 C 878.80 672.20 878.80 668.19 878.90 664.18 C 867.93 664.03 856.95 664.25 845.98 664.08 C 839.25 663.77 833.52 657.74 833.45 651.02 C 833.38 643.67 833.40 636.32 833.43 628.97 Z"/>
<path fill="#000000" d=" M 1039.05 615.62 C 1046.67 615.53 1054.30 615.58 1061.93 615.60 C 1047.40 649.63 1033.00 683.73 1018.69 717.86 C 1016.96 722.31 1012.80 725.77 1007.98 726.22 C 1002.93 726.55 997.86 726.26 992.80 726.35 C 997.79 715.69 1002.29 704.81 1007.13 694.08 C 998.64 674.48 990.62 654.67 982.13 635.06 C 987.28 628.81 992.48 622.59 997.53 616.25 C 1004.50 633.51 1011.54 650.75 1018.42 668.05 C 1020.69 664.17 1021.77 659.61 1023.62 655.48 C 1028.76 642.19 1033.87 628.89 1039.05 615.62 Z"/>
<path fill="#000000" d=" M 1137.58 615.59 C 1157.39 615.57 1177.20 615.56 1197.00 615.59 C 1204.17 615.45 1210.58 621.82 1210.53 628.97 C 1210.53 650.80 1210.63 672.65 1210.48 694.47 C 1203.40 694.26 1196.32 694.48 1189.24 694.35 C 1189.48 674.45 1189.23 654.55 1189.37 634.65 C 1179.21 634.65 1169.06 634.63 1158.90 634.66 C 1158.96 654.56 1158.80 674.46 1158.99 694.35 C 1151.85 694.42 1144.72 694.38 1137.59 694.38 C 1137.65 668.12 1137.66 641.85 1137.58 615.59 Z"/>
<path fill="#000000" d=" M 1315.42 616.58 C 1318.44 615.29 1321.79 615.60 1325.01 615.57 C 1340.73 615.59 1356.45 615.56 1372.17 615.58 C 1372.13 621.65 1372.16 627.72 1372.15 633.80 C 1357.48 633.80 1342.81 633.77 1328.15 633.81 C 1328.21 637.82 1328.21 641.83 1328.14 645.84 C 1339.10 646.00 1350.08 645.72 1361.04 645.98 C 1367.74 646.26 1373.55 652.16 1373.68 658.88 C 1373.68 666.26 1373.64 673.64 1373.69 681.03 C 1373.77 687.86 1367.90 694.29 1360.98 694.36 C 1342.95 694.42 1324.92 694.38 1306.90 694.38 C 1306.90 688.33 1306.90 682.28 1306.90 676.24 C 1322.06 676.22 1337.22 676.23 1352.39 676.24 C 1352.36 672.20 1352.37 668.17 1352.38 664.14 C 1341.59 664.10 1330.79 664.17 1320.00 664.11 C 1315.09 664.02 1310.47 660.91 1308.30 656.55 C 1306.63 652.95 1306.86 648.88 1306.91 645.02 C 1306.99 639.34 1306.71 633.66 1307.03 628.00 C 1307.35 622.98 1310.79 618.45 1315.42 616.58 Z"/>
</g>
</svg>