<svg version="1.1" id="Layer_1" xmlns:x="ns_extend;" xmlns:i="ns_ai;" xmlns:graph="ns_graphs;" xmlns="http://www.w3.org/2000/svg" xmlns:xlink="http://www.w3.org/1999/xlink" x="0px" y="0px" viewBox="0 0 162.9 47.9" style="enable-background:new 0 0 162.9 47.9;" xml:space="preserve">
 <style type="text/css">
  .st0{fill:#E60012;}
 </style>
 <metadata>
  <sfw xmlns="ns_sfw;">
   <slices>
   </slices>
   <sliceSourceBounds bottomLeftOrigin="true" height="47.9" width="162.9" x="118.2" y="-224">
   </sliceSourceBounds>
  </sfw>
 </metadata>
 <g>
  <polygon class="st0" points="141.5,10.1 145.2,10.1 145.2,8.2 148.9,8.2 148.9,10.1 155.5,10.1 155.5,8.2 159.2,8.2 159.2,10.1 
		162.9,10.1 162.9,13.1 159.2,13.1 159.2,15.2 155.5,15.2 155.5,13.1 148.9,13.1 148.9,15.2 145.2,15.2 145.2,13.1 141.5,13.1 	">
  </polygon>
  <path class="st0" d="M142.9,16.4c-0.6,0.1-1.1,0.6-1.2,1.2v4.6h3.7v-2.8H159v2.8h3.7v-4.6c-0.1-0.6-0.6-1.1-1.2-1.2H142.9z">
  </path>
  <path class="st0" d="M161.2,23.9h-9c0-0.2,0-2.2,0-2.2h-3.8c0,0,0,1.9,0,2.2h-6.6v3h6.4c-0.6,4-2.3,7.3-6.3,9.7l0,0l2.4,3
		c5-3.1,7.1-7.4,7.7-12.7h6.5v1.4l0,0c0,3.4-0.3,6.1-3.1,8.3l2.4,3c3.8-3,4.6-6.7,4.5-11.3h0v-3.2C162.3,24.5,161.8,24,161.2,23.9">
  </path>
  <path class="st0" d="M138.9,18.5c-0.2,0.2-0.5,0.3-0.7,0.5v-5.9h1.8v-3h-1.8V8.2h-3.8v1.9h-2.8v3h2.8v8c-1.3,0.6-2.5,1.2-3.6,1.6
		l1.5,3.4c0.6-0.2,1.3-0.6,2.1-0.9v3.1c0,1.9-0.1,3.5-0.6,4.9c-0.4,1.3-1.2,2.4-2.6,3.4l2.4,3c1.9-1.5,3.1-3.2,3.8-5.1
		c0.7-1.9,0.8-3.9,0.8-6.2h0v-5.2c0.8-0.5,1.6-1,2.3-1.4L138.9,18.5z">
  </path>
  <path class="st0" d="M115.9,36.3c-1.1-1.2-1.9-3-2-4.6H110c0.3,2.9,1.5,5.5,3.5,7.6L115.9,36.3z">
  </path>
  <path class="st0" d="M125.2,36.4c-1-0.9-1.8-1.8-2.4-2.9c-0.7-1.1-1.2-2.5-1.6-4.2h0l-0.8-2.8h5.4v-3h-6.2L118,18h7v-3h-21
		c-0.6,0.1-1.1,0.6-1.2,1.2c0,0,0,13.5,0,13.7c0,3.8,0,6,2.2,9.3l2.6-3.2c-0.9-1.9-1-3.6-1-6.2c0-0.2,0-3.3,0-3.3h9.7l1.1,3.8v0
		c0.6,2,1.2,3.6,2,5c0.8,1.5,1.9,2.7,3.3,3.9L125.2,36.4z M106.7,23.5V18h7.3l1.5,5.5H106.7z">
  </path>
  <path class="st0" d="M113.5,9.4V7.9h-3.8v1.6H98.1c-0.6,0.1-1,0.6-1.1,1.2v17.6c0,1.9-0.1,3.5-0.6,4.9c-0.5,1.3-1.2,2.4-2.6,3.4
		l2.4,3c1.9-1.5,3.1-3.2,3.8-5.1c0.7-1.9,0.8-3.9,0.8-6.2h0V12.4h25v-3C121.7,9.4,117.6,9.4,113.5,9.4">
  </path>
  <path class="st0" d="M59.3,29L59.3,29c0,1.4-0.1,2.7-0.6,3.9c-0.5,1.1-1.3,2.3-2.8,3.4l2.4,3c2.1-1.6,3.3-3.3,4-5
		c0.7-1.7,0.9-3.4,0.9-5.3l0,0v-6h-3.8V29z">
  </path>
  <path class="st0" d="M68,12.4h21.2v-3H70.7V7.9h-3.8v3.4C66.9,11.8,67.4,12.3,68,12.4">
  </path>
  <rect x="56.4" y="16.4" class="st0" width="6.7" height="3">
  </rect>
  <path class="st0" d="M90,26.1v-3h-1.7l0-7.1c-0.1-0.6-0.6-1.1-1.2-1.2H69.2c-0.6,0.1-1.1,0.6-1.2,1.1l-0.3,7.1h-2.4v3h2.3l-0.3,8
		c0.1,0.6,0.6,1.1,1.2,1.2h2.6h12.7c-0.4,0.5-0.9,1.1-1.7,1.6l0,0l2.4,3c1.8-1.3,2.8-2.6,3.3-4.1c0.1-0.2,0.1-0.3,0.1-0.5h1.7v-3
		h-1.3l0-6.1H90z M71.8,17.8h12.7c0,1.7,0,3.5,0,5.3h-4.6v-3.8h-3.8v3.8h-4.5L71.8,17.8z M84.5,32.2h-4.6v-4.7h-3.8v4.7h-4.8
		l0.2-6.1h13C84.5,28.1,84.6,30.2,84.5,32.2">
  </path>
  <rect x="56.4" y="9.3" class="st0" width="6.7" height="3">
  </rect>
  <path class="st0" d="M24,0C10.8,0,0,10.8,0,24c0,13.2,10.8,24,24,24c13.2,0,24-10.8,24-24C47.9,10.8,37.1,0,24,0 M41.2,31.6
		c-2.8,6.6-9,11.9-16,14.6c0,0,0,0,0,0c-0.1,0-0.2-0.1-0.2-0.2c0,0,0-0.1,0-0.1c1-1.2,1.2-3.2-1-3.2c-0.4,0-0.8,0-1.2,0
		c-10.4-0.7-18.3-9.6-17.6-20c0.7-10.4,9.6-18.3,20-17.6c10.4,0.7,18.3,9.6,17.6,20C42.6,27.4,42.1,29.6,41.2,31.6">
  </path>
  <path class="st0" d="M27.6,21.4c-0.1,0-0.2,0-0.3,0c0.6-1.9,1.3-3.8,2.3-6c0.6-1.4,0.5-1.9-0.5-2.8c-0.4-0.3-0.8,0-1,0.4
		c-1.3,2.5-2.6,5.5-3.6,8.6c-1.6,0.2-3.1,0.5-4.5,0.8c-0.3,0.1-0.6,0.1-0.9,0.2c1-3.5,2.4-6.9,4.1-10.3c0.6-1.2,0.7-1.4,0-2.2
		c-0.3-0.4-0.7-0.6-1-0.6c-0.3,0-0.5,0.3-0.8,0.7c-2.2,3.2-4.2,8.3-5.7,13.3c-1.6,0.5-3,1-4,1.6c-0.7,0.4-1.1,1-1.1,1.7
		c0,0.7,0.2,1.7,1.1,1.6c0.9-0.6,2-1.2,3.1-1.8c-0.7,2.6-1.2,5.2-1.5,7.3c-0.1,0.8,0,1.4,0.4,1.8c0.1,0.2,0.5,0.5,0.7,0.6
		c0.5,0.3,1.1,0.6,1.7,0.3c0.3-0.2,0.4-0.6,0.5-1c0.4-3.7,1-7.2,1.9-10.6c2-0.7,3.9-1.3,5.5-1.7c-0.8,2.6-1.4,5.2-1.7,7.6
		c-0.1,1.1-0.5,2.6,0.4,3.5c0.6,0.6,1.6,0.5,2,0c0.2-0.3,0.3-0.7,0.3-1.1c0.4-4,1-7.3,2-10.6c0.2-0.1,0.5-0.1,0.7-0.1
		c0.5-0.1,0.9-0.2,1.2-0.2c0.5,0,0.4-0.2,0.4-0.3C28.9,21.6,28.2,21.4,27.6,21.4">
  </path>
  <path class="st0" d="M36.2,29.5c-1,1.9-2.2,2.6-3.4,2.1c-1-0.4-0.6-2.4,0.1-4.5c0.5-1.8,1.4-3.6,1.7-4.2c0.1-0.3,0.3-0.3,0.2-0.5
		c0-0.2-0.2-0.4-0.3-0.5c0,0,0,0,0,0c0.1-0.1,0.1-0.3-0.2-0.6c-0.2-0.2-0.1-0.6-0.1-0.6c0.6-2.7-0.1-4.4-0.2-4.7c0,0,0,0,0,0
		c0,0,0,0,0,0v0c-0.1-0.3-0.4-0.5-0.7-0.5c-0.5,0-0.9,0.3-1,0.8c0,0.5,0.3,0.9,0.8,1c0.1,0,0.3,0,0.4-0.1h0c0.4-0.2,0.3,3.4-0.7,3.4
		c-0.3,0-0.9,0.1-0.9,0.3c-0.2,0-0.4,0.1-0.6,0.1c-0.3,0.2,0,0.7-0.1,1.2c-0.2,1-0.8,2.4-1.3,4.6c-0.4,1.5-1.9,6.6,3,6.6
		c2.4,0,3.6-2.6,3.9-3.7c0-0.1,0.1-0.1,0.2-0.1C37.1,29.3,36.6,28.8,36.2,29.5">
  </path>
 </g>
</svg>