<?xml version="1.0" encoding="UTF-8"?><svg id="Livello_2" xmlns="http://www.w3.org/2000/svg" xmlns:xlink="http://www.w3.org/1999/xlink" viewBox="0 0 4000 1732.86"><defs><style>.cls-1{fill:url(#Sfumatura_senza_nome_5);}.cls-2{fill:#bebebe;}</style><linearGradient id="Sfumatura_senza_nome_5" x1="2000" y1="-105.42" x2="2000" y2="1721.53" gradientUnits="userSpaceOnUse"><stop offset="0" stop-color="#3a79a2"/><stop offset="1" stop-color="#6fb3d3"/></linearGradient></defs><g id="Livello_1-2"><path class="cls-1" d="M767.29,0c3.76,19.5-1.54,13.38-10.83,18.68-74,42.22-83.15,53.95-90.37,145.29-10.98,138.92-14.5,455.92,10.55,586.83,3.36,17.58,18.81,78.84,31.4,86.44,41.91,5.84,89,5.96,131.34,4.35,100.02-3.79,202.97-13.14,302.9-17.72,54.56-2.5,67.27,14.6,101.64,50.8,141.17,148.69,275.27,304.34,412.85,454.61,13.37,14.61,29.74,31.43,46.49,41.89l-8.44-248.1c-3.3-82.05,17.87-226.1-50.97-285.64-15.41-13.32-44.53-21.09-63.41-29.28-10.07-4.37-15.4,4.51-12-17.4,95.86,2.44,191.36-12.05,286.62-21.21,15.15-1.46,21.33-10.1,33.66,8.56-63.46,34.54-105.26,68-117.34,143.6l-2.17,738.13c-8.42,20.11-28.39,29.6-49.01,18.48l-548.06-593.16c1.38,16.3,7.87,28.28,8.91,45.74,8.69,146.42-18.41,319.26,9.78,461.33,5.92,29.82,36.36,73.36,62.53,89.03,19.05,11.4,58.51,9.29,53.61,34.8l-311.97,16.79c7.36-22.72,34.17-25.81,50.14-38.25,57.6-44.87,64.48-115.24,68.31-184.22,9.33-167.92-14.64-335.65-10.39-503.58-51.13-48.22-93.04-126.61-171.39-124.22-184.61,5.64-370.16,29.01-556.52,25.85L0,925.27l422.05-54.16c38.43-12.4,54.35-99.31,57.68-135.94,8.08-88.89,11.17-210.24-83.41-251.46,59.91-33.66,83.48-111.26,85.01-176.63.53-22.45-7.89-39.21-9.22-58.86-3.46-51.15,1.36-118.9-29.76-163.8-21.98-31.71-59.16-30.12-79.78-59.15L767.29,0ZM3229.59,1038.9c0-6.23,13.51-57.88,17.94-66.23,4.92-9.26,16.01-19.58,24.57-26.01,15.17-11.4,39.08-6.77,33.34-29.71l-295.07,16.82c-18.3,16.53,52.12,31.4,54.61,42.2,10.96,12.79,19.66,53.38,21.28,71.31,3.05,33.65,7.96,129.32-2.4,157.56-25.09,68.37-107.74,57.34-166.24,69.57,22.2,26.61,52.39,3.77,80.04,3.5,85.92-.82,100.97,69.04,97.37,139.97-1.21,23.91-5.9,77.72-10.45,98.87-6.51,30.23-31.93,41.04-54.82,54.53-8.84,5.21-14.93-1.29-10.95,18.6,48.73-5.27,98.97-4.68,147.6-8.31,14.37-1.07,27.66-7.52,42.03-8.54,23.87-1.71,95.93,8.82,105.44-12.59-49.76-18.53-70.23-37.42-76-92.37l-8.72-209.34c31.39-21.15,75.74-31.24,109.66-9.13,60.35,39.35,41.16,241.85,92.87,302.68,22.07,13.37,49.4-3.37,71.88-4.5,39.22-1.97,79.04,2.31,118.23.07,12.72-.73,24.27,6.4,21.02-12.55-62.13-35.27-85.87-61.9-105.65-130.26-36.43-125.93-29.14-232.89-206.39-218.98,85.22-95.24,164.47-211.86,278.44-273.56,11.68-6.32,21.03,1.37,16.67-20.78l-261.34,16.82c-3.76,19.49,1.53,13.38,10.83,18.69,24.79,14.15,60.19,19.16,53.24,57.21l-199.03,226.92v-172.45ZM2689.95,959.02c-5.9,23.92,19.64,16.29,36.79,26.3,18.26,10.66,36.86,29.58,29.51,52l-188.69,216.05c-19.14,3.49-11.62-8.32-12.56-20.88-4.78-64.08,13.31-127.58,10.13-191.89,8.4-31.31,30.42-40.21,54.78-54.57,8.84-5.21,14.93,1.29,10.95-18.6l-295.07,16.82c-5.89,23.82,19.61,16.41,36.79,26.3,18.52,10.67,30.5,28.07,35.38,48.86,6.07,25.85,11.45,92.97,12.68,122.28,1.25,29.69-3.91,64.78-21.19,88.99-42.75,59.89-97.11,31.66-156.5,54.24-.05,15.64,148.78-24.26,173.41,54.2,9.01,28.71,6.65,137.58-.02,169.19-9.68,45.86-28.31,49.79-61.41,73.06-7.7,5.41-15.19-.56-10.7,18.98l295.1-25.27c-11.04-22.62-39.47-21.14-54.67-42.14-13.73-18.95-16.36-48.75-21.25-71.34l-8.79-192.31c161.85-91.04,149.92,104.85,172.91,205.24,7.3,31.87,18.4,61.36,30.71,91.34l218.36-16.03-66.77-46.86c-90.47-121.97-28.55-339.67-253.63-306.46l171.72-198.89,123.41-95.42-261.37,16.8ZM552.63,1177.14c-21.53-.16-161.01,30.23-164.79,46.98,8.56,39.17,117.82,103.89,124.88,127.6,13.56,45.59-22.99,129.01-19.4,179.59l17.97,15.54,160.45-89.85c31.8,5.96,148.52,77.81,171.75,61.81,12.54-8.64,7.24-19.99,6.14-31.6-5.39-56.72-41.95-131.22-6.44-179.13,17.6-23.75,162.92-132.6,72.14-139.22-48.94-3.57-99.22-3.24-148.13-12.06-21.16-10.74-52.39-103.63-72.04-130.02-23.54-31.6-36.28-34.99-56.06,1.98-42.06,78.63-25.98,142.59,35.15,203.95,18.91,18.98,67.59,38.07,72.22,45.68,19.64,32.25-9.04,32.86-13.04,39.39-11.06,18.06-6.16,49.57-24.9,66.28l-89.46,12.2-16.49-7.93c2.81-54.34-40.34-69.94-54.77-114.36l59.26-50.08c3.2-15.22-14.83-16.3-22.43-23.77-11.41-11.21-3.96-22.76-32.01-22.98ZM3841.01,883.34c-38.22,2.66-81.65-4.43-118.51-.46-12.97,1.4-20.73.51-29,13.01,47.64,24.9,59.79,22.43,73.61,77.86,21.37,85.69,25.17,193.74-48.45,254.32,84.32,11.6,69.04,226.09,37.82,269.17-15.2,20.98-43.63,19.52-54.67,42.14l295.1-16.8c18.54-16.73-52.43-31.05-54.51-42.29-34.64-88.12-19.19-187.79-21.28-281.62-1.21-54.32-12.96-108.94-8.56-168.25,1.82-24.6,13.7-104.01,27.62-119.73,4.46-5.04,63.95-30.28,48.3-44.22-5.54-4.93-126.06,15.37-147.47,16.86ZM1973.19,1009.49c-5.69,27.82,38.88,21.43,51.02,39.42,34.63,46.48,51.1,271.33-34.15,288.72v8.24c98.34,41.42,66.72,184.51,44.6,267.06-11.13,22.74-54.59,22.29-53.01,52.7l286.64-25.3c-10.57-22.97-40.46-20.6-54.42-42.39-11.49-17.93-20.25-80.66-21.86-104.38-6.97-102.47-10.28-295.61,1.19-394.97,2.01-17.38,10.32-49.82,20.42-63.76,15.2-20.98,43.63-19.52,54.67-42.14l-295.1,16.8ZM1197.38,479.48c-57.59-31.65-219.82-262.25-266.69-267.11-33.08,10.19-66.62,4.54-100.23,6.33-12.74.68-24.27-6.36-21.01,12.56,40.79,16.59,73.19,44.05,92.73,84.25-8.82,88.55,12.35,200.14-.33,285.58-4.67,31.49-29.68,48.05-54.53,63.43l8.43,16.66,147.68-16.68c-23.84-28.07-48.91-21.13-57.21-64.85-13.73-72.34,10.59-163.17-10.22-237.9l25.2,12.66,250.05,272.23,24.33-7.06,4.2-382.77c9.8-31.24,29.07-48.17,58.76-59.1-9.24-13.71-12.85-9.77-25.1-9.07-44.96,2.55-90.26,9.98-135.09,13.31,20.06,24.04,52.95,36.01,59.03,71.45,10.17,59.26-7.49,143.76,0,206.1ZM1990.03,134.57c1.23,27.89,35.31,30.47,55.13,50.15,9.38,9.32,26.68,34.12,28.95,46.83-4.95,76.15,14.15,150.82,8.74,226.96-1.31,18.38-8.6,71.9-14.85,86.14-9.03,20.59-29.5,25.9-44.2,40.06-3.2,26.9,18.29,4.13,21.04,4.13h126.49l12.64-16.75-51.15-28.95c-3.59-5.74-16.29-55.22-16.29-59.46v-206.1l261.14,281.71,33.5,3.86c12.16-22.32.4-40.23.1-62.24-1.22-87.94-9.77-219.91,1.02-302.62,5.26-40.35,24.37-64.68,58.38-84.77l-160.19,4.3c3.97,19.53,30.55,17.96,40.11,27.23,34.61,33.59,25.38,207.03,27.29,258.72l-257.13-269.2h-130.7ZM2921.81,319.64c5.84,0,33.64,21.42,36.46,30.92,6.48,21.83,4.37,121.99-7.82,140.64-14.94,22.86-45.8,12.05-41.26,38.72l210.78-16.85c-13.06-24.93-44.93-12.82-50.47-46.33-13.22-79.9-17.74-247.79-7.89-327.53,3.71-30.01,15.97-36.59,45.64-38.51,56.55-3.66,98.26,23.34,118.11,75.9,25.7-11.19-6.52-100.04,4.28-126.19l-446.24,34.38c3.63,39.4-13.5,93.22,11.96,125.46,11.52-59.57,80.67-109.01,141.78-90.91,30.81,9.13,27.45,100,22.53,128.7-6.21,36.28-58.26,48.54-89.21,54.01l-104.64,17.59h156ZM1619,302.81c-25.03,14.61-20.93,51.59-42.48,71.16-28.08,25.5-63.5,26.21-82.2-9.86-22.87-44.09-3.71-99.63,1.88-145.96,74.37-20.67,182.26-28.59,202.89,67.81,18.91-8.27,20.88-118.9-1.06-125.33l-365.72,24.48c3.87,20.43,35.88,17.88,42.22,31.24,7.79,16.42,18.18,111.8,14.99,130.69-3.97,23.56-16.83,43.14-37.26,55.6l-79.01,22.1,87.07,5.77c44.65,13.15,38.28,138.3,14.41,171.19-13.3,18.32-38.36,14.68-33.95,37.59l202.32-8.41c2.72-24.38-26.07-24.77-37.58-42.37-23.73-36.26-30.63-182.56,39.71-174.8,53.32,5.88,43.31,46.01,73.79,74.19v-185.07ZM3575.33,25.27l41.09,26.17c19.88,27.86-64.97,141.84-87.46,167.14-7.59-.03-84.54-110.03-87.31-123.68-7.1-34.9,21.58-32.04,24.04-61.25l-202.35,16.86c15.02,26.54,43.02,36.63,62.62,59.44,17.18,19.99,117.35,173.15,121.22,190.33,5.24,23.28,5.19,116.29-.06,139.61-7.01,31.12-35.91,30.87-48.86,56.35l210.81-16.82-42.22-31.24c-5.78-56.94-26.72-134.35-15.01-189.83,5.27-24.98,103.82-175,125.35-194.62,19.96-18.19,52.38-23.69,66.8-46.87l-168.65,8.41ZM2521.27,100.98c15.46,22.86,41.96,24.86,48.87,56.34,4.43,20.17,5.43,113.2.14,131.3-14.86,50.79-116.96,35.7-116.53,52.06,45.11,11.18,104.06-13.72,122.82,45.79,12.06,38.26-.41,82.28-6.72,120.43l-40.11,48.26c25.09,5.49,48.78-7.12,71.58-8.44,26.82-1.55,120.99,9.22,130.74-12.59l-44.84-31.34c-3.43-32.93-12.71-70.69-14.55-102.83-3.45-60.1-7.64-223.1,15.38-271.43,12.58-26.42,37.07-19.06,35.58-44.39l-202.35,16.85ZM1753.95,151.42c-6.75,25.15,21.29,16.59,33.87,29.23,21.4,36,31.75,175.35-10.5,192.2l-90.92,18.3c-.08,14.95,106.33-23.77,123.16,54.39,6.74,31.3-11.47,77.39-6.6,112.3l-48.99,47.75,210.74-8.37c4.19-22.4-3.81-12.91-12.28-17.33-44.73-23.31-43.83-55.08-47.11-104.23-4.42-66.27-7.33-197.3,1.06-260.52,5.61-42.28,23.78-45.22,49.93-72.11l-202.35,8.38Z"/><path class="cls-2" d="M3786.1,656.2l-79.99,16.85c-54.85,3.12-114.52,3.6-168.8,8.26-412.79,35.48-826.18,86.2-1239.41,109.47-31.06,1.75-69.24,7.72-88.52-21.07,35.52-53.24,102.18-16.11,155.82-37.92l1420.9-75.58ZM2090.69,778.18l38.53,36.5,37.9-44.79-45.24-28.92-31.18,37.21ZM244.1,492.09l37.28,37.33,31-37.33-37.28-37.33-31,37.33Z"/></g></svg>