<svg width="3379" height="631" viewBox="0 0 3379 631" fill="none" xmlns="http://www.w3.org/2000/svg">
<path d="M1592.99 237.409C1678.46 237.409 1763.93 237.409 1849.4 237.409C1879.9 237.409 1882.92 242.328 1872.2 268.15C1860.8 295.817 1843.37 317.95 1814.88 333.628C1771.64 357.606 1730.75 385.58 1686.84 408.635C1668.4 418.472 1644.94 424.313 1623.49 424.928C1554.78 427.08 1485.73 425.85 1416.68 425.543C1391.88 425.543 1387.85 419.395 1397.24 397.569C1409.98 367.75 1420.7 360.68 1455.23 360.68C1541.7 360.68 1628.52 360.987 1714.99 360.372C1741.81 360.065 1767.95 355.454 1785.05 333.32C1798.12 316.413 1792.09 304.424 1769.63 302.58C1758.57 301.658 1747.17 301.965 1736.11 301.965C1592.99 301.965 1449.86 301.965 1306.4 301.965C1275.9 301.965 1272.55 296.432 1283.95 270.302C1294 247.554 1311.1 237.409 1338.58 237.717C1423.38 238.024 1508.18 237.717 1592.99 237.409C1592.99 237.717 1592.99 237.717 1592.99 237.409Z" fill="#EC0A95"/>
<path d="M252.916 301.965C177.499 301.965 102.083 301.965 26.6658 301.965C-1.48971 301.965 -5.17675 296.739 5.54918 273.069C18.6214 244.172 29.3473 237.409 62.8658 237.409C232.134 237.409 401.403 237.409 570.336 237.409C576.37 237.409 582.068 237.409 588.101 238.332C598.827 239.869 603.184 245.402 599.497 255.546C588.101 287.209 571.677 314.569 539.164 332.706C496.596 356.683 454.697 382.198 413.134 407.406C392.688 419.702 370.566 425.543 346.433 425.543C277.384 425.85 208.336 425.85 139.623 425.543C115.825 425.543 111.133 418.165 119.512 398.183C131.914 368.98 145.321 360.68 179.175 360.372C266.994 360.372 354.812 360.68 442.631 360.065C468.44 359.757 493.244 354.224 508.997 332.398C520.729 316.106 515.031 304.424 493.579 302.272C484.194 301.35 474.808 301.965 465.423 301.965C394.364 301.965 323.64 301.965 252.916 301.965Z" fill="#EC0A95"/>
<path d="M990.994 131.661C1075.13 131.661 1159.59 131.661 1243.72 131.661C1247.75 131.661 1252.1 131.969 1256.13 132.276C1278.25 134.12 1281.6 139.346 1273.55 158.098C1256.46 197.139 1240.71 236.795 1221.27 274.606C1213.89 288.746 1198.81 301.043 1184.4 310.265C1128.42 345.309 1071.77 379.432 1014.12 412.017C999.708 420.009 981.609 423.698 964.514 425.543C943.062 428.002 920.94 427.08 899.153 426.772C878.371 426.772 872.673 418.78 880.047 400.95C894.46 366.52 903.51 360.68 944.403 360.68C976.246 360.68 1008.09 360.68 1039.93 360.68C1095.24 360.987 1138.81 335.165 1160.26 288.746C1168.98 269.995 1177.02 250.628 1185.07 231.569C1196.13 204.824 1190.76 197.754 1158.59 197.754C1036.58 197.754 914.571 197.754 792.564 197.754C762.062 197.754 731.225 198.061 700.723 197.754C677.26 197.446 673.238 191.913 680.947 172.239C693.684 139.961 706.421 131.969 743.627 131.969C826.083 132.276 908.538 131.969 991.329 131.969C990.994 132.276 990.994 131.969 990.994 131.661Z" fill="#EC0A95"/>
<path d="M2910.93 132.276C2993.39 132.276 3076.18 132.276 3158.64 132.276C3166.35 132.276 3174.05 132.276 3181.76 132.891C3194.84 134.12 3199.86 141.498 3194.84 152.257C3175.73 195.295 3156.63 238.332 3135.51 280.446C3130.15 291.206 3117.74 300.428 3106.35 307.498C3049.03 342.85 2991.71 377.587 2933.39 411.709C2922 418.472 2907.92 424.006 2894.51 424.928C2867.7 427.08 2840.21 426.465 2813.4 425.543C2794.96 424.928 2790.6 417.857 2797.31 402.18C2812.05 367.135 2822.11 360.987 2863 360.987C2896.52 360.987 2930.38 362.524 2963.89 360.68C3015.18 358.22 3055.73 338.854 3075.85 292.743C3084.56 273.376 3093.61 254.009 3102.33 234.643C3115.06 206.361 3109.36 198.676 3075.85 198.676C2939.09 198.369 2802.33 198.676 2665.58 198.676C2648.48 198.676 2631.39 198.983 2614.3 198.369C2596.87 197.754 2592.51 191.298 2597.87 176.543C2609.94 142.42 2623.68 132.891 2661.89 132.891C2744.68 132.276 2827.81 132.276 2910.93 132.276Z" fill="#EC0A95"/>
<path d="M2056.21 283.52C2090.4 283.52 2124.59 283.213 2158.78 283.52C2186.93 283.828 2210.06 274.913 2229.5 255.854C2261.01 225.113 2292.85 194.987 2324.36 163.939C2346.48 142.113 2372.63 131.046 2405.81 131.969C2447.71 132.891 2489.61 131.969 2531.17 132.276C2561 132.276 2565.02 138.117 2554.63 163.017C2544.24 187.609 2528.82 197.754 2500 198.061C2462.12 198.369 2424.58 196.524 2387.04 198.676C2338.44 201.443 2300.9 222.039 2280.79 264.769C2260.34 308.42 2240.23 352.072 2220.12 396.032C2212.74 412.017 2200.68 422.776 2181.24 425.235C2160.45 427.695 2152.75 420.009 2160.12 401.872C2169.5 378.509 2180.23 355.761 2190.62 333.013C2191.96 329.939 2193.97 327.172 2194.31 324.098C2194.64 319.487 2194.98 313.032 2191.96 310.88C2189.28 308.728 2181.57 309.65 2177.55 311.802C2169.17 315.798 2161.46 321.024 2154.42 326.558C2135.99 340.083 2115.2 348.076 2091.07 348.076C2031.41 348.076 1972.08 348.383 1912.42 348.076C1894.32 348.076 1890.3 342.543 1894.65 326.865C1902.7 297.354 1920.8 284.135 1953.65 284.135C1988.17 283.213 2022.36 283.213 2056.21 283.52C2056.21 283.213 2056.21 283.213 2056.21 283.52Z" fill="#EC0A95"/>
<path d="M332.69 198.676C246.212 198.676 159.399 198.676 72.9213 198.676C45.7713 198.676 41.0787 192.528 50.7991 169.472C63.8713 139.346 77.6139 130.739 113.479 130.739C280.066 130.739 446.988 130.739 613.575 130.739C618.268 130.739 622.96 130.432 627.653 130.739C646.423 131.969 651.786 139.039 645.753 155.024C633.016 189.454 619.273 198.369 579.721 198.369C497.601 198.676 415.145 198.676 332.69 198.676Z" fill="#EC0A95"/>
<path d="M1608.4 198.061C1522.93 198.061 1437.46 198.061 1351.99 198.061C1324.5 198.061 1320.15 192.22 1329.87 169.165C1341.26 141.191 1354.67 132.583 1386.85 132.583C1557.12 132.583 1727.4 132.583 1898 132.583C1905.04 132.583 1912.42 133.198 1918.45 135.658C1922.14 137.195 1926.16 143.035 1926.16 146.724C1925.15 175.006 1897.67 198.061 1866.83 198.061C1780.35 198.061 1694.21 198.061 1608.4 198.061Z" fill="#EC0A95"/>
<path d="M3378.85 104.917C3376.84 112.602 3376.17 118.135 3373.83 123.361C3351.7 173.161 3329.25 223.269 3306.79 272.761C3296.06 296.124 3273.6 306.576 3246.45 301.658C3231.37 298.891 3231.71 289.361 3236.06 279.217C3246.12 256.161 3259.86 234.028 3266.57 210.358C3280.98 159.328 3322.88 132.583 3368.13 107.991C3370.14 106.454 3373.15 106.146 3378.85 104.917Z" fill="#EC0A95"/>
<path d="M3203.89 428.309C3178.08 425.85 3173.05 419.087 3182.43 398.183C3185.79 390.806 3188.8 383.12 3192.49 375.743C3202.88 356.069 3230.7 345.617 3252.49 353.609C3257.18 355.454 3263.88 363.446 3262.54 365.906C3254.83 382.506 3247.46 400.028 3236.06 414.169C3229.7 421.854 3214.95 423.698 3203.89 428.309Z" fill="#EC0A95"/>
<path d="M3217.29 87.3945C3230.03 61.8797 3242.1 35.7501 3256.51 11.1575C3259.86 5.31675 3272.26 2.24267 3280.98 0.705635C3301.76 -2.67585 3308.46 6.23898 3302.1 24.376C3295.39 43.4353 3282.32 57.2686 3264.22 67.7204C3250.48 75.713 3237.07 84.0131 3223.66 92.0056C3221.65 90.1612 3219.64 88.6242 3217.29 87.3945Z" fill="#EC0A95"/>
<path d="M3123.44 87.3945C3136.18 61.8797 3148.25 35.7501 3162.66 11.1575C3166.01 5.31675 3178.41 2.24267 3187.13 0.705635C3207.91 -2.67585 3214.61 6.23898 3208.24 24.376C3201.54 43.4353 3188.47 57.2686 3170.37 67.7204C3156.62 75.713 3143.22 84.0131 3129.81 92.0056C3127.8 90.1612 3125.79 88.6242 3123.44 87.3945Z" fill="#EC0A95"/>
<path d="M1303.39 87.3945C1316.12 61.8797 1328.19 35.7501 1342.6 11.1575C1345.95 5.31675 1358.36 2.24267 1367.07 0.705635C1387.85 -2.67585 1394.56 6.23898 1388.19 24.376C1381.48 43.4353 1368.41 57.2686 1350.31 67.7204C1336.57 75.713 1323.16 84.0131 1309.75 92.0056C1307.74 90.1612 1305.73 88.6242 1303.39 87.3945Z" fill="#EC0A95"/>
<path d="M1209.53 87.3945C1222.27 61.8797 1234.34 35.7501 1248.75 11.1575C1252.1 5.31675 1264.5 2.24267 1273.22 0.705635C1294 -2.67585 1300.7 6.23898 1294.34 24.376C1287.63 43.4353 1274.56 57.2686 1256.46 67.7204C1242.72 75.713 1229.31 84.0131 1215.9 92.0056C1213.89 90.1612 1211.88 88.6242 1209.53 87.3945Z" fill="#EC0A95"/>
<path d="M1568.85 566.643C1565.84 574.02 1560.81 579.861 1554.44 584.165C1547.74 588.469 1541.03 590.313 1533.66 590.313H1513.88C1510.53 590.313 1507.18 589.698 1504.83 588.776C1502.15 587.546 1500.14 586.009 1498.8 583.857C1497.46 581.706 1496.79 579.246 1496.45 576.48C1496.45 573.406 1497.12 570.332 1498.46 566.643C1499.13 564.798 1500.48 563.261 1502.15 562.339C1503.83 561.417 1505.5 560.802 1507.18 560.802C1508.85 560.802 1509.86 561.417 1510.87 562.339C1511.87 563.261 1511.87 564.798 1510.87 566.643C1509.19 570.639 1509.19 573.406 1510.53 575.558C1511.87 577.709 1514.55 578.632 1518.58 578.632H1538.35C1542.37 578.632 1545.73 577.709 1548.74 575.558C1551.76 573.713 1554.1 570.639 1555.78 566.643L1560.47 555.576C1561.14 553.732 1561.81 552.195 1562.15 550.657C1562.48 549.12 1562.15 548.198 1561.14 546.969C1560.14 546.046 1558.13 545.432 1555.11 544.817C1552.09 544.509 1548.07 544.202 1542.37 544.202C1536.68 544.202 1531.65 543.895 1527.63 543.28C1523.6 542.665 1520.25 541.435 1518.24 539.591C1516.23 537.746 1514.89 534.98 1514.89 531.598C1514.89 528.217 1515.89 523.606 1518.24 518.072L1519.92 514.076C1521.59 510.387 1523.6 507.006 1525.95 504.239C1528.63 501.165 1531.31 498.706 1534.66 496.861C1537.68 494.709 1541.03 493.172 1544.72 492.25C1548.41 491.328 1551.76 490.713 1555.11 490.713H1574.89C1582.26 490.713 1587.29 492.865 1590.3 496.861C1593.32 501.165 1593.32 506.698 1589.97 514.076L1589.63 514.998C1588.96 516.843 1587.62 518.38 1585.95 519.302C1584.27 520.224 1582.6 520.839 1580.92 520.839C1579.24 520.839 1578.24 520.224 1577.23 519.302C1576.23 518.38 1576.23 516.843 1577.23 514.998L1577.57 514.076C1579.24 510.08 1579.24 507.313 1577.9 505.161C1576.56 503.317 1573.88 502.087 1569.86 502.087H1550.08C1546.06 502.087 1542.71 503.009 1539.69 505.161C1536.68 507.006 1534.33 510.08 1532.65 514.076L1530.98 518.072C1529.64 521.146 1528.97 523.606 1528.63 525.45C1528.3 527.294 1528.63 528.832 1529.64 530.061C1530.64 530.983 1532.65 531.906 1535.67 532.213C1538.69 532.52 1542.37 532.828 1547.4 532.828C1553.43 532.828 1558.46 533.135 1562.82 534.058C1566.84 534.672 1570.19 535.902 1572.2 537.746C1574.22 539.591 1575.56 541.743 1575.56 544.817C1575.56 547.891 1574.89 551.58 1572.88 555.883L1568.85 566.643Z" fill="#EE25A1"/>
<path d="M1682.82 539.898C1681.81 542.05 1680.8 543.587 1679.13 544.509C1677.45 545.432 1675.78 546.046 1674.1 546.046C1672.43 546.046 1671.42 545.432 1670.41 544.509C1669.41 543.587 1669.41 542.05 1670.08 540.206C1671.42 536.517 1671.42 533.75 1670.08 531.906C1668.74 530.061 1666.06 529.139 1662.03 529.139H1642.26C1638.24 529.139 1634.88 530.061 1631.87 532.213C1628.85 534.057 1626.5 537.132 1624.83 541.128L1613.77 566.95C1612.09 570.946 1612.09 573.713 1613.43 575.865C1614.77 577.709 1617.45 578.939 1621.48 578.939H1641.25C1644.94 578.939 1648.63 578.017 1651.64 576.172C1654.66 574.328 1657.01 571.254 1658.68 567.565C1659.35 565.72 1660.69 564.183 1662.37 563.261C1664.05 562.339 1665.72 561.724 1667.4 561.724C1669.07 561.724 1670.41 562.339 1671.08 563.261C1671.75 564.183 1671.75 565.72 1671.08 567.872C1668.07 574.943 1663.38 580.476 1656.67 584.78C1649.97 588.776 1643.26 590.928 1635.89 590.928H1616.11C1612.76 590.928 1609.41 590.313 1607.06 589.391C1604.38 588.469 1602.37 586.624 1601.03 584.78C1599.69 582.628 1598.68 580.169 1598.68 577.402C1598.68 574.328 1599.35 571.254 1601.03 567.565L1612.09 541.743C1613.77 538.054 1615.78 534.672 1618.13 531.906C1620.81 528.832 1623.49 526.372 1626.84 524.528C1629.86 522.376 1633.21 520.839 1636.9 519.917C1640.58 518.995 1643.93 518.38 1647.29 518.38H1667.06C1670.75 518.38 1673.77 518.995 1676.45 519.917C1679.13 520.839 1681.14 522.376 1682.48 524.528C1683.82 526.372 1684.83 528.832 1684.83 531.598C1685.16 533.443 1684.49 536.517 1682.82 539.898Z" fill="#EE25A1"/>
<path d="M1766.61 584.78C1765.94 586.624 1764.6 588.161 1762.93 589.083C1761.25 590.006 1759.57 590.62 1757.9 590.62C1756.22 590.62 1755.22 590.006 1754.21 589.083C1753.2 588.161 1753.2 586.624 1754.21 584.78L1772.65 540.82C1774.32 536.824 1774.32 534.057 1772.98 531.906C1771.64 530.061 1768.96 528.832 1764.94 528.832H1745.16C1741.14 528.832 1737.79 529.754 1734.43 531.906C1731.08 534.057 1728.74 536.824 1727.06 540.82L1708.29 585.087C1707.62 586.932 1706.28 588.469 1704.6 589.391C1702.93 590.313 1701.25 590.928 1699.58 590.928C1697.9 590.928 1696.89 590.313 1695.89 589.391C1694.88 588.469 1694.88 586.932 1695.89 585.087L1736.78 488.561C1737.45 486.717 1738.79 485.18 1740.47 484.257C1742.14 483.335 1743.82 482.72 1745.5 482.72C1747.17 482.72 1748.18 483.335 1749.18 484.257C1750.19 485.18 1750.19 486.717 1749.18 488.561L1736.11 519.917C1740.13 518.072 1744.83 517.15 1749.85 517.15H1769.63C1777 517.15 1782.03 519.302 1785.05 523.298C1788.06 527.602 1788.06 533.135 1785.05 540.82L1766.61 584.78Z" fill="#EE25A1"/>
<path d="M1876.89 566.95C1873.87 574.328 1868.84 580.169 1862.47 584.165C1855.77 588.469 1849.07 590.313 1841.69 590.313H1821.92C1818.57 590.313 1815.21 589.698 1812.87 588.776C1810.19 587.854 1808.18 586.009 1806.83 584.165C1805.49 582.013 1804.49 579.554 1804.49 576.787C1804.49 573.713 1805.16 570.639 1806.83 566.95L1817.9 541.128C1819.57 537.439 1821.58 534.058 1823.93 531.291C1826.61 528.217 1829.29 525.757 1832.64 523.913C1835.66 521.761 1839.01 520.224 1842.7 519.302C1846.39 518.38 1849.74 517.765 1853.09 517.765H1872.87C1880.24 517.765 1885.27 519.917 1888.28 523.913C1891.3 528.217 1891.3 533.75 1888.28 541.435L1876.89 566.95ZM1875.21 540.82C1876.89 536.824 1876.89 534.057 1875.55 531.906C1874.21 530.061 1871.52 528.832 1867.5 528.832H1847.73C1843.7 528.832 1840.35 529.754 1837.34 531.906C1834.32 533.75 1831.97 536.824 1830.3 540.82L1819.24 566.643C1817.56 570.639 1817.56 573.406 1818.9 575.558C1820.24 577.402 1822.92 578.632 1826.95 578.632H1846.72C1850.74 578.632 1854.1 577.709 1857.11 575.558C1860.13 573.713 1862.47 570.639 1864.15 566.643L1875.21 540.82Z" fill="#EE25A1"/>
<path d="M1979.45 566.95C1976.44 574.328 1971.41 580.169 1965.04 584.165C1958.34 588.469 1951.63 590.313 1944.26 590.313H1924.48C1921.13 590.313 1917.78 589.698 1915.43 588.776C1912.75 587.854 1910.74 586.009 1909.4 584.165C1908.06 582.013 1907.05 579.554 1907.05 576.787C1907.05 573.713 1907.73 570.639 1909.4 566.95L1920.46 541.128C1922.14 537.439 1924.15 534.058 1926.5 531.291C1929.18 528.217 1931.86 525.757 1935.21 523.913C1938.23 521.761 1941.58 520.224 1945.27 519.302C1948.95 518.38 1952.3 517.765 1955.66 517.765H1975.43C1982.81 517.765 1987.83 519.917 1990.85 523.913C1993.87 528.217 1993.87 533.75 1990.85 541.435L1979.45 566.95ZM1977.78 540.82C1979.45 536.824 1979.45 534.057 1978.11 531.906C1976.77 530.061 1974.09 528.832 1970.07 528.832H1950.29C1946.27 528.832 1942.92 529.754 1939.9 531.906C1936.89 533.75 1934.54 536.824 1932.86 540.82L1921.8 566.643C1920.13 570.639 1920.13 573.406 1921.47 575.558C1922.81 577.402 1925.49 578.632 1929.51 578.632H1949.29C1953.31 578.632 1956.66 577.709 1959.68 575.558C1962.7 573.713 1965.04 570.639 1966.72 566.643L1977.78 540.82Z" fill="#EE25A1"/>
<path d="M2077.33 584.472C2076.66 586.009 2075.65 587.239 2073.98 588.469C2072.3 589.698 2070.62 590.313 2068.61 590.313H2006.27C2004.26 590.313 2002.92 589.698 2002.25 588.469C2001.58 587.239 2001.58 586.009 2002.25 584.472C2002.92 582.935 2003.92 581.706 2005.6 580.476C2007.27 579.246 2008.95 578.632 2010.96 578.632H2036.77L2069.95 499.628H2053.53C2051.52 499.628 2050.18 499.013 2049.51 497.783C2048.84 496.554 2048.84 495.324 2049.51 493.787C2050.18 492.25 2051.18 491.02 2052.86 489.791C2054.54 488.561 2056.21 487.946 2058.22 487.946H2079C2081.02 487.946 2082.69 488.561 2083.7 490.098C2084.7 491.635 2084.7 493.48 2084.03 495.324L2048.84 578.324H2072.64C2074.65 578.324 2075.99 578.939 2076.66 580.169C2078 581.398 2078 582.628 2077.33 584.472Z" fill="#EE25A1"/>
<path d="M2256.32 585.394C2255.65 586.932 2254.64 588.161 2252.97 589.391C2251.29 590.62 2249.61 591.235 2247.27 591.235H2182.91C2180.9 591.235 2179.56 590.62 2178.89 589.391C2178.22 588.161 2178.22 586.932 2178.89 585.087C2179.56 583.55 2180.57 582.32 2182.24 581.091C2183.92 579.861 2185.59 579.246 2187.94 579.246H2214.75L2233.52 529.139H2216.77C2214.75 529.139 2213.41 528.524 2212.74 527.294C2212.07 526.065 2212.07 524.835 2212.74 522.991C2213.41 521.454 2214.42 520.224 2216.1 518.995C2217.77 517.765 2219.45 517.15 2221.79 517.15H2243.25C2245.59 517.15 2247.27 518.072 2248.27 519.609C2249.28 521.146 2249.61 522.991 2248.61 525.143L2228.16 579.554H2252.63C2254.64 579.554 2255.98 580.169 2256.65 581.398C2256.99 582.628 2256.99 583.857 2256.32 585.394ZM2265.03 495.324C2263.69 499.013 2261.01 502.087 2257.66 504.546C2253.97 507.006 2250.28 508.235 2246.26 508.235C2242.24 508.235 2239.56 507.006 2237.55 504.546C2235.87 502.087 2235.54 499.013 2236.88 495.324C2238.22 491.635 2240.9 488.561 2244.25 486.102C2247.94 483.643 2251.63 482.413 2255.65 482.413C2259.67 482.413 2262.35 483.643 2264.36 486.102C2266.04 488.561 2266.37 491.635 2265.03 495.324Z" fill="#EE25A1"/>
<path d="M2362.24 567.565C2359.55 574.943 2354.86 581.091 2348.16 585.087C2341.45 589.391 2334.75 591.543 2327.04 591.543H2306.6C2302.91 591.543 2299.89 590.928 2297.21 590.006C2294.53 588.776 2292.18 587.239 2290.84 585.394C2289.17 583.243 2288.16 580.783 2288.16 578.017C2287.82 574.943 2288.5 571.561 2289.84 567.872L2299.56 541.743C2300.9 538.054 2302.91 534.672 2305.25 531.598C2307.6 528.524 2310.62 526.065 2313.63 524.22C2316.65 522.069 2320 520.532 2323.69 519.609C2327.38 518.687 2330.73 518.072 2334.42 518.072H2354.86C2359.55 518.072 2363.58 518.994 2366.93 520.839L2379 489.176C2379.67 487.332 2381.01 485.795 2382.68 484.872C2384.36 483.95 2386.03 483.335 2387.71 483.335C2389.39 483.335 2390.73 483.95 2391.73 484.872C2392.74 485.795 2392.74 487.332 2392.07 489.176L2362.24 567.565ZM2358.88 541.435C2360.22 537.439 2360.22 534.365 2358.88 532.52C2357.21 530.676 2354.53 529.446 2350.5 529.446H2330.06C2326.04 529.446 2322.68 530.369 2319.33 532.52C2316.32 534.365 2313.97 537.439 2312.29 541.435L2302.57 567.565C2301.23 571.561 2301.23 574.635 2302.91 576.48C2304.58 578.324 2307.27 579.554 2311.29 579.554H2331.73C2335.76 579.554 2339.44 578.632 2342.46 576.48C2345.48 574.635 2347.82 571.561 2349.16 567.565L2358.88 541.435Z" fill="#EE25A1"/>
<path d="M2463.8 567.565C2461.12 574.943 2456.42 581.091 2449.72 585.087C2443.02 589.391 2436.31 591.543 2428.6 591.543H2408.16C2404.47 591.543 2401.45 590.928 2398.77 590.006C2396.09 588.776 2393.74 587.239 2392.4 585.394C2390.73 583.243 2390.06 580.783 2389.72 578.017C2389.39 574.943 2390.06 571.561 2391.4 567.872L2401.12 541.435C2402.46 537.746 2404.47 534.365 2406.82 531.291C2409.16 528.217 2412.18 525.757 2415.2 523.913C2418.21 521.761 2421.56 520.224 2425.25 519.302C2428.94 518.38 2432.29 517.765 2435.98 517.765H2456.42C2463.8 517.765 2469.16 519.917 2472.85 524.22C2476.2 528.524 2476.53 534.365 2473.85 541.743L2463.8 567.565ZM2460.78 541.435C2462.12 537.439 2462.12 534.365 2460.78 532.52C2459.1 530.676 2456.42 529.446 2452.4 529.446H2431.95C2427.93 529.446 2424.58 530.369 2421.23 532.52C2418.21 534.365 2415.87 537.439 2414.19 541.435L2404.47 567.872C2403.13 571.869 2403.13 574.943 2404.8 576.787C2406.48 578.632 2409.16 579.861 2413.18 579.861H2433.63C2437.65 579.861 2441.34 578.939 2444.36 576.787C2447.37 574.943 2449.72 571.869 2451.06 567.872L2460.78 541.435Z" fill="#EE25A1"/>
<path d="M2561.67 585.394C2561 586.932 2560 588.161 2558.32 589.391C2556.64 590.62 2554.97 591.235 2552.62 591.235H2488.27C2486.25 591.235 2484.91 590.62 2484.24 589.391C2483.57 588.161 2483.57 586.932 2484.24 585.087C2484.91 583.55 2485.92 582.32 2487.6 581.091C2489.27 579.861 2490.95 579.246 2493.29 579.246H2520.11L2550.27 499.32H2533.52C2531.5 499.32 2530.16 498.706 2529.49 497.476C2528.82 496.246 2528.82 495.017 2529.49 493.172C2530.16 491.635 2531.17 490.406 2532.85 489.176C2534.52 487.946 2536.2 487.332 2538.54 487.332H2560C2562.34 487.332 2564.02 487.946 2565.02 489.791C2566.03 491.328 2566.36 493.172 2565.36 495.324L2533.85 579.554H2558.32C2560.33 579.554 2561.67 580.169 2562.34 581.398C2562.34 582.628 2562.34 583.857 2561.67 585.394Z" fill="#EE25A1"/>
<path d="M2744.68 571.561C2743.34 575.557 2741 579.246 2738.65 582.32C2735.97 585.394 2732.95 588.161 2729.6 590.313C2726.25 592.465 2722.9 594.002 2718.87 595.232C2715.19 596.461 2711.16 597.076 2707.48 597.076H2685.69C2680.66 597.076 2676.3 596.154 2672.95 594.309L2661.56 624.435C2660.89 626.587 2659.55 628.124 2657.87 629.046C2656.19 630.276 2654.18 630.583 2652.51 630.583C2650.83 630.583 2649.49 629.969 2648.48 629.046C2647.48 627.817 2647.14 626.28 2648.15 624.435L2678.32 544.202C2681.33 536.209 2686.36 530.061 2693.06 525.45C2700.1 520.839 2707.48 518.687 2715.19 518.687H2736.97C2740.66 518.687 2744.01 519.302 2747.03 520.532C2750.05 521.761 2752.39 523.298 2754.07 525.45C2755.74 527.602 2756.75 530.369 2757.08 533.443C2757.42 536.517 2756.75 540.206 2755.41 544.202L2744.68 571.561ZM2741.33 543.894C2743.01 539.591 2743.01 536.517 2741 534.365C2739.32 532.213 2736.3 531.291 2732.28 531.291H2710.49C2706.14 531.291 2702.45 532.213 2699.1 534.365C2695.75 536.517 2693.4 539.591 2691.72 543.894L2681.33 571.561C2679.66 575.865 2679.66 578.939 2681.33 581.091C2683.01 583.243 2686.02 584.165 2690.38 584.165H2712.17C2716.53 584.165 2720.21 583.243 2723.57 581.091C2726.92 578.939 2729.26 575.865 2730.94 571.561L2741.33 543.894Z" fill="#EE25A1"/>
<path d="M2865.01 543.894C2864.34 546.046 2863 547.583 2861.33 548.506C2859.65 549.735 2857.64 550.043 2855.96 550.043C2854.29 550.043 2852.95 549.428 2851.94 548.506C2850.94 547.276 2850.94 545.739 2851.61 543.894C2853.28 539.591 2853.28 536.517 2851.61 534.365C2849.93 532.213 2846.91 531.291 2842.56 531.291H2832.84C2828.48 531.291 2824.79 532.213 2821.44 534.365C2818.09 536.517 2815.74 539.591 2814.07 543.894L2798.98 584.165H2820.77C2823.12 584.165 2824.46 584.78 2825.13 586.009C2825.8 587.239 2825.8 588.776 2825.13 590.313C2824.46 591.85 2823.45 593.387 2821.77 594.617C2820.1 595.846 2818.09 596.461 2815.74 596.461H2767.47C2765.13 596.461 2763.79 595.846 2763.12 594.617C2762.45 593.387 2762.45 591.85 2763.12 590.313C2763.79 588.776 2764.79 587.239 2766.47 586.009C2768.15 584.78 2770.16 584.165 2772.5 584.165H2785.24L2805.02 531.291H2792.28C2789.93 531.291 2788.59 530.676 2787.92 529.446C2787.25 528.217 2787.25 526.68 2787.92 525.143C2788.59 523.606 2789.6 522.069 2791.27 520.839C2792.95 519.609 2794.96 518.995 2797.31 518.995H2814.74C2816.08 518.995 2817.42 519.302 2818.42 520.224C2819.43 520.839 2820.43 521.761 2820.77 522.991C2823.45 521.761 2826.13 520.839 2828.81 520.224C2831.5 519.609 2834.51 519.302 2837.19 519.302H2846.91C2854.96 519.302 2860.66 521.454 2864.01 526.065C2867.7 529.754 2868.03 535.902 2865.01 543.894Z" fill="#EE25A1"/>
<path d="M2953.5 571.869C2950.49 579.861 2945.46 586.009 2938.75 590.62C2931.72 595.232 2924.34 597.383 2916.63 597.383H2894.85C2891.16 597.383 2887.81 596.769 2884.79 595.539C2881.77 594.309 2879.43 592.772 2877.75 590.62C2876.07 588.469 2875.07 585.702 2874.73 582.628C2874.4 579.554 2875.07 575.865 2876.41 571.869L2886.8 543.894C2888.14 539.898 2890.49 536.209 2892.83 533.135C2895.52 530.061 2898.53 527.295 2901.88 525.143C2905.24 522.991 2908.59 521.454 2912.61 520.224C2916.3 518.995 2920.32 518.38 2924.01 518.38H2945.79C2953.84 518.38 2959.54 520.532 2962.89 525.143C2966.58 529.754 2966.91 535.902 2963.89 543.894L2953.5 571.869ZM2950.15 543.894C2951.83 539.591 2951.83 536.517 2950.15 534.365C2948.47 532.213 2945.46 531.291 2941.1 531.291H2919.31C2914.96 531.291 2911.27 532.213 2907.92 534.365C2904.57 536.517 2902.22 539.591 2900.54 543.894L2890.15 571.869C2888.48 576.172 2888.48 579.246 2890.49 581.398C2892.16 583.55 2895.18 584.472 2899.2 584.472H2920.99C2925.35 584.472 2929.03 583.55 2932.39 581.398C2935.74 579.246 2938.08 576.172 2939.76 571.869L2950.15 543.894Z" fill="#EE25A1"/>
<path d="M3022.22 602.302C3019.2 610.294 3014.17 616.443 3007.47 621.054C3000.76 625.665 2993.05 627.817 2985.01 627.817H2975.29C2967.58 627.817 2962.22 625.972 2959.54 622.591C2956.85 619.209 2955.51 614.906 2955.51 609.68C2955.51 609.065 2955.51 608.45 2955.51 607.835C2955.51 607.22 2955.85 606.606 2955.85 606.298C2956.52 604.454 2957.86 602.917 2959.87 601.687C2961.88 600.457 2963.56 600.15 2965.57 600.15C2966.91 600.15 2968.25 600.457 2969.26 601.38C2970.26 601.995 2970.6 603.224 2970.6 605.069C2970.26 609.065 2970.93 611.524 2972.27 613.061C2973.61 614.598 2976.3 615.213 2980.32 615.213H2990.04C2994.4 615.213 2998.08 614.291 3001.43 612.139C3004.79 609.987 3007.13 606.913 3008.81 602.609L3035.62 531.598H3023.89C3021.55 531.598 3020.2 530.983 3019.53 529.754C3018.86 528.524 3018.86 526.987 3019.53 525.45C3020.2 523.913 3021.21 522.376 3022.89 521.146C3024.56 519.917 3026.57 519.302 3028.92 519.302H3047.69C3049.37 519.302 3051.04 519.917 3051.71 521.146C3052.72 522.376 3052.72 523.913 3052.05 525.45L3022.22 602.302ZM3065.79 495.324C3064.45 499.32 3061.77 502.395 3058.08 504.854C3054.39 507.313 3050.37 508.85 3046.01 508.85C3041.66 508.85 3038.64 507.62 3036.96 504.854C3034.95 502.395 3034.95 499.013 3036.29 495.324C3037.63 491.328 3040.32 488.254 3044.34 485.487C3048.36 482.72 3052.38 481.491 3056.4 481.491C3060.76 481.491 3063.78 482.72 3065.45 485.487C3067.13 488.254 3067.13 491.328 3065.79 495.324Z" fill="#EE25A1"/>
<path d="M3161.65 553.732C3160.31 556.806 3158.3 559.265 3155.28 561.109C3152.27 562.954 3149.59 563.876 3146.9 563.876H3094.62L3091.6 571.561C3089.92 575.865 3089.92 578.939 3091.93 581.091C3093.61 583.243 3096.63 584.165 3100.65 584.165H3121.43C3125.79 584.165 3129.14 583.243 3132.16 581.706C3135.17 580.169 3137.52 578.017 3139.2 575.557C3140.2 574.02 3141.54 572.791 3143.22 572.176C3144.56 571.561 3146.23 571.254 3147.57 571.254C3149.25 571.254 3150.93 571.869 3151.93 572.791C3152.94 573.713 3153.27 575.25 3152.6 577.095C3152.6 577.095 3152.27 577.402 3152.27 577.709C3151.93 578.017 3151.93 578.632 3151.6 579.246C3148.25 584.78 3143.55 589.083 3137.18 592.157C3131.15 595.232 3124.45 596.769 3117.41 596.769H3096.63C3092.94 596.769 3089.59 596.154 3086.57 594.924C3083.55 593.694 3081.21 592.157 3079.53 590.006C3077.86 587.854 3076.85 585.087 3076.52 582.013C3076.18 578.939 3076.85 575.25 3078.19 571.254L3088.58 543.587C3089.92 539.591 3092.27 535.902 3094.62 532.828C3097.3 529.754 3100.31 526.987 3103.67 524.835C3107.02 522.683 3110.37 521.146 3114.39 519.917C3118.08 518.687 3122.1 518.072 3125.79 518.072H3147.57C3155.62 518.072 3161.32 520.224 3164.67 524.835C3168.36 529.446 3168.69 535.595 3165.68 543.587L3161.65 553.732ZM3151.6 543.894C3153.27 539.591 3153.27 536.517 3151.6 534.365C3149.92 532.213 3146.9 531.291 3142.55 531.291H3120.76C3116.4 531.291 3112.72 532.213 3109.36 534.365C3106.01 536.517 3103.67 539.591 3101.99 543.894L3099.31 551.272H3148.58L3151.6 543.894Z" fill="#EE25A1"/>
<path d="M3263.21 542.972C3262.54 545.124 3261.2 546.661 3259.19 547.891C3257.52 549.12 3255.5 549.428 3253.83 549.428C3252.15 549.428 3250.81 548.813 3249.81 547.891C3248.8 546.969 3248.47 545.432 3249.14 543.28C3250.48 539.283 3250.48 536.209 3248.8 534.365C3247.13 532.213 3244.11 531.291 3240.09 531.291H3218.3C3213.94 531.291 3210.25 532.213 3206.9 534.365C3203.55 536.517 3201.2 539.591 3199.53 543.894L3189.14 571.869C3187.46 576.172 3187.46 579.246 3189.47 581.398C3191.15 583.55 3194.17 584.472 3198.19 584.472H3219.97C3224.33 584.472 3228.02 583.55 3231.04 581.398C3234.39 579.246 3236.73 576.172 3238.41 572.176C3239.08 570.024 3240.42 568.487 3242.43 567.565C3244.11 566.643 3246.12 566.028 3247.8 566.028C3249.47 566.028 3251.15 566.643 3252.15 567.565C3253.16 568.795 3253.16 570.332 3252.49 572.483C3249.47 580.169 3244.78 586.009 3237.74 590.62C3230.7 594.924 3223.33 597.076 3215.62 597.076H3193.83C3190.14 597.076 3186.79 596.461 3183.77 595.232C3180.76 594.002 3178.41 592.465 3176.74 590.313C3175.06 588.161 3174.05 585.394 3173.72 582.32C3173.38 579.246 3174.05 575.557 3175.4 571.561L3185.79 543.587C3187.13 539.591 3189.47 535.902 3191.82 532.828C3194.5 529.754 3197.52 526.987 3200.87 524.835C3204.22 522.683 3207.57 521.146 3211.6 519.917C3215.28 518.687 3219.3 518.072 3222.99 518.072H3244.78C3248.8 518.072 3252.15 518.687 3255.17 519.917C3258.19 521.146 3260.53 522.683 3262.21 524.835C3263.88 526.987 3264.89 529.446 3265.22 532.52C3265.22 535.902 3264.55 539.283 3263.21 542.972Z" fill="#EE25A1"/>
<path d="M3354.05 574.635C3353.71 575.25 3353.71 575.865 3353.04 576.48C3352.71 577.095 3352.37 577.709 3352.04 578.017C3348.35 583.857 3343.66 588.469 3338.3 592.157C3332.93 595.539 3326.23 597.383 3317.85 597.383H3309.47C3301.42 597.383 3295.73 595.232 3292.37 590.62C3288.69 586.009 3288.35 579.861 3291.37 571.869L3306.45 531.291H3293.72C3291.37 531.291 3290.03 530.676 3289.36 529.446C3288.69 528.217 3288.69 526.68 3289.36 525.143C3290.03 523.606 3291.03 522.069 3292.71 520.839C3294.39 519.609 3296.4 518.995 3298.74 518.995H3311.48L3320.87 493.787C3321.54 491.635 3322.88 490.098 3324.55 489.176C3326.23 487.946 3328.24 487.639 3329.92 487.639C3331.59 487.639 3332.93 488.254 3333.94 489.176C3334.94 490.406 3334.94 491.943 3334.27 493.787L3324.89 518.995H3356.73C3359.08 518.995 3360.42 519.609 3361.09 520.839C3361.76 522.069 3361.76 523.606 3361.09 525.143C3360.42 526.68 3359.41 528.217 3357.74 529.446C3356.06 530.676 3354.05 531.291 3351.7 531.291H3319.86L3304.78 571.869C3303.1 576.172 3303.1 579.246 3304.78 581.398C3306.45 583.55 3309.47 584.472 3313.83 584.472H3322.21C3326.9 584.472 3330.59 583.55 3332.93 582.013C3335.28 580.476 3337.62 577.402 3340.64 573.406C3341.65 571.869 3342.99 570.332 3344.66 569.717C3346 568.795 3347.68 568.487 3349.02 568.487C3350.7 568.487 3352.37 569.102 3353.38 570.024C3354.72 571.254 3355.05 572.791 3354.05 574.635Z" fill="#EE25A1"/>
</svg>
