<svg width="3338" height="841" viewBox="0 0 3338 841" fill="none" xmlns="http://www.w3.org/2000/svg">
<path d="M0 285.889C4.02222 277.589 8.37963 269.596 12.4019 261.296C19.7759 245.311 32.8482 236.396 51.9537 236.396C228.261 236.396 404.569 236.396 580.876 236.396C598.976 236.396 604.674 244.389 599.311 260.067C588.25 292.037 569.144 317.245 536.631 334.767C493.728 358.13 452.5 384.567 410.937 409.774C391.496 421.456 370.715 426.989 347.587 426.989C278.539 426.989 209.491 426.989 140.443 426.989C115.304 426.989 109.941 419.304 119.326 397.785C121.337 392.867 123.683 387.948 125.694 383.337C133.069 365.815 147.146 357.515 167.593 357.515C258.093 357.515 348.593 357.822 439.093 357.515C465.572 357.515 489.035 350.752 505.124 329.848C508.476 325.545 512.163 318.167 510.152 315.093C507.47 310.789 499.761 308.33 494.063 306.793C488.365 305.256 481.661 306.178 475.628 306.178C326.47 306.178 177.313 306.485 28.1555 305.87C18.7704 305.87 9.72038 300.03 0.335193 296.648C7.66679e-06 292.652 0 289.27 0 285.889Z" fill="#EC0A95"/>
<path d="M1363.87 0C1376.61 5.84074 1377.61 14.7557 1372.92 26.4372C1365.21 44.8816 1353.14 59.9446 1335.04 71.0112C1318.62 80.8483 1301.86 90.6852 1285.44 100.522C1284.09 99.6 1283.09 98.9853 1281.75 98.063C1282.42 93.7593 1282.42 89.4557 1284.09 85.4594C1292.47 65.1705 1299.85 44.2668 1310.57 24.9001C1316.27 15.0631 1328.34 8.3 1337.72 0C1346.77 0 1355.49 0 1363.87 0Z" fill="#EC0A95"/>
<path d="M3157.11 0C3169.85 7.07037 3169.85 16.6001 3164.82 27.9742C3156.44 46.1112 3144.04 61.1742 3125.94 71.9334C3109.85 81.463 3093.76 90.9926 3077.67 100.522C3076.66 99.6 3075.32 98.9853 3074.32 98.063C3075.32 93.1445 3075.66 88.226 3077.67 83.6149C3084.04 68.2445 3091.75 53.1815 3097.11 37.5037C3103.14 20.2889 3113.54 7.6853 3131.3 0.30752C3140.01 0.000112571 3148.39 0 3157.11 0Z" fill="#EC0A95"/>
<path d="M3248.61 0C3261.02 6.14815 3262.36 15.0631 3257.33 26.4372C3249.62 44.8816 3237.55 59.9446 3219.45 71.0112C3203.03 80.8483 3186.27 90.6852 3169.85 100.522C3168.84 99.6 3167.5 98.9853 3166.49 98.063C3167.16 93.7593 3167.5 89.1482 3168.84 85.1519C3177.22 65.1704 3184.26 44.5742 3194.99 25.8223C3201.02 15.6779 3213.42 8.3 3222.81 0C3231.52 0 3239.9 0 3248.61 0Z" fill="#EC0A95"/>
<path d="M1272.36 0C1285.1 6.76296 1285.44 16.2927 1280.07 27.9742C1272.03 46.1112 1259.63 61.1742 1241.53 71.9334C1225.44 81.463 1209.35 90.9926 1193.26 100.522C1192.25 99.6 1190.91 98.9853 1189.91 98.063C1190.91 93.7593 1190.91 89.1483 1192.59 84.8446C1200.97 64.8631 1208.01 44.5742 1218.73 25.8223C1224.77 15.6779 1237.17 8.60741 1246.55 0C1255.27 0 1263.98 0 1272.36 0Z" fill="#EC0A95"/>
<path d="M1573.02 236.396C1659.17 236.396 1745.31 236.396 1831.79 236.396C1857.93 236.396 1861.62 242.545 1853.57 264.678C1842.51 296.341 1821.4 318.782 1790.56 335.996C1748.66 359.359 1708.1 384.874 1667.21 409.467C1647.77 421.148 1626.99 426.682 1603.86 426.682C1534.81 426.682 1465.76 426.682 1396.72 426.682C1371.24 426.682 1365.88 419.304 1375.26 397.785C1376.94 394.096 1378.28 390.408 1379.96 386.719C1389.68 363.971 1401.07 356.9 1427.22 356.9C1516.38 356.9 1605.54 356.9 1694.36 356.9C1721.18 356.9 1744.97 349.83 1761.73 328.926C1771.79 316.015 1767.77 307.715 1750.67 306.178C1744.64 305.563 1738.27 305.87 1732.24 305.87C1584.09 305.87 1435.93 305.87 1287.78 305.87C1282.42 305.87 1277.39 306.178 1272.03 305.256C1261.3 303.719 1254.93 297.57 1258.29 287.733C1262.31 275.437 1267.34 262.833 1274.37 251.767C1282.08 239.778 1295.83 236.089 1311.24 236.089C1398.39 236.396 1485.88 236.396 1573.02 236.396Z" fill="#EC0A95"/>
<path d="M2869.52 132.185C2953.99 132.185 3038.12 132.185 3122.59 132.185C3127.95 132.185 3132.98 131.878 3138.34 132.493C3151.41 134.337 3157.44 141.407 3152.75 152.782C3136.33 192.13 3119.9 231.785 3100.8 270.211C3094.76 282.507 3082.03 293.574 3069.63 301.567C3012.31 338.456 2954.32 374.115 2896.34 410.389C2879.24 421.148 2860.47 426.067 2840.02 426.374C2818.24 426.682 2796.11 426.374 2774.33 426.374C2751.2 426.374 2745.84 418.689 2754.22 398.4C2756.9 392.252 2759.24 386.104 2762.26 380.263C2769.64 364.585 2782.37 356.593 2801.14 356.593C2840.69 356.593 2880.25 355.363 2919.8 356.9C2960.02 358.437 3022.03 322.778 3034.77 284.967C3041.14 265.907 3050.52 247.463 3058.23 228.711C3065.27 211.496 3059.24 202.582 3039.12 201.659C3024.71 201.045 3010.63 201.352 2996.22 201.352C2857.45 201.352 2719.02 201.352 2580.26 201.352C2552.44 201.352 2548.08 195.204 2558.8 171.533C2562.16 163.848 2565.17 155.856 2569.86 149.093C2579.59 135.259 2595 131.878 2612.1 131.878C2698.24 132.493 2784.05 132.185 2869.52 132.185Z" fill="#EC0A95"/>
<path d="M983.769 132.185C1068.57 132.185 1153.37 132.185 1238.17 132.185C1244.21 132.185 1250.58 132.185 1256.61 133.415C1266.66 135.567 1271.36 142.33 1267.67 151.244C1250.58 191.515 1234.15 231.785 1214.71 271.133C1208.68 283.122 1196.28 293.882 1184.21 301.567C1126.89 338.456 1069.24 375.037 1010.58 409.774C995.165 418.689 975.724 423.607 957.289 425.759C933.826 428.526 909.693 426.682 885.894 426.374C866.119 426.067 860.085 418.074 867.124 401.167C869.806 394.096 872.822 387.333 876.174 380.571C883.548 365.2 896.285 356.593 915.056 356.593C954.607 356.593 994.159 355.363 1033.71 356.9C1074.6 358.437 1136.61 322.471 1149.01 285.274C1155.38 265.6 1165.44 247.156 1173.15 228.096C1179.52 212.419 1173.48 203.504 1155.38 201.967C1150.02 201.659 1144.99 201.659 1139.63 201.659C992.819 201.659 846.007 201.659 699.196 201.659C693.498 201.659 687.8 201.967 682.102 201.352C670.37 200.122 665.007 193.359 668.694 183.215C672.717 172.148 677.409 160.774 683.443 150.63C692.493 135.567 708.581 131.878 726.011 131.878C812.154 132.493 897.961 132.185 983.769 132.185Z" fill="#EC0A95"/>
<path d="M2029.21 280.048C2062.39 280.048 2095.91 279.433 2129.1 280.356C2157.25 280.97 2179.71 272.67 2198.81 253.611C2232.67 220.411 2267.86 188.441 2301.72 155.241C2317.81 139.563 2337.25 132.185 2360.04 132.185C2407.64 132.185 2455.23 132.185 2502.83 132.185C2526.63 132.185 2531.99 139.87 2523.94 159.852C2521.93 164.77 2519.92 169.689 2517.91 174.608C2509.2 194.589 2497.8 201.967 2474.34 201.967C2437.13 202.274 2399.93 203.504 2362.72 201.659C2315.79 199.508 2257.14 236.396 2242.72 276.359C2227.64 318.167 2208.2 358.437 2190.44 399.322C2182.06 418.689 2166.97 427.296 2145.19 426.374C2127.42 425.759 2121.05 417.459 2127.42 402.396C2138.48 376.267 2149.88 350.444 2160.6 324.315C2162.61 319.704 2161.61 313.863 2161.61 308.637C2156.25 309.867 2149.88 309.867 2146.19 312.941C2105.97 345.526 2059.04 353.826 2006.75 350.752C1966.87 348.293 1926.64 350.445 1886.76 350.137C1864.3 350.137 1858.6 342.144 1867.32 322.778C1870 316.63 1873.01 310.789 1875.7 304.641C1883.41 288.041 1897.15 279.433 1916.92 279.433C1954.8 280.048 1992.01 280.048 2029.21 280.048Z" fill="#EC0A95"/>
<path d="M330.493 201.352C243.68 201.352 157.202 201.352 70.389 201.352C46.926 201.352 41.8982 194.282 50.9482 174.915C53.6297 168.767 56.6464 162.926 59.6631 157.085C66.3668 142.33 78.7686 134.645 95.8631 132.8C101.561 132.185 107.259 132.185 112.958 132.185C279.545 132.185 446.467 132.185 613.054 132.185C618.417 132.185 623.445 131.878 628.807 132.493C643.891 134.03 648.583 141.408 643.891 154.319C641.209 161.696 637.858 169.074 634.506 176.145C627.132 193.052 613.389 201.045 593.613 201.045C505.795 201.352 418.311 201.352 330.493 201.352Z" fill="#EC0A95"/>
<path d="M1586.77 201.352C1499.95 201.352 1413.14 201.352 1326.66 201.352C1303.87 201.352 1298.51 193.974 1307.56 174.3C1309.9 169.382 1312.25 164.77 1314.26 159.852C1322.31 140.793 1338.06 132.185 1359.85 132.185C1388.34 132.185 1417.16 132.185 1445.65 132.185C1586.77 132.185 1727.88 132.185 1868.99 132.185C1873.69 132.185 1878.71 131.878 1883.41 132.493C1899.83 133.722 1905.19 141.408 1899.83 155.548C1897.15 162.619 1894.13 169.382 1890.78 176.145C1883.41 193.052 1869.66 201.352 1849.89 201.352C1762.07 201.352 1674.59 201.352 1586.77 201.352Z" fill="#EC0A95"/>
<path d="M723.665 793.111C752.156 793.111 780.982 793.111 809.472 793.111C840.645 793.111 862.767 778.971 877.85 754.993C884.219 744.848 888.911 733.782 893.939 723.022C899.302 711.033 895.615 705.193 881.872 704.885C846.678 704.578 811.483 704.578 775.954 704.885C759.865 704.885 751.15 714.722 745.787 727.019C739.754 740.545 731.374 750.382 713.274 749.767C701.208 749.152 697.856 745.156 701.208 735.011C711.598 704.885 711.598 704.885 676.404 704.885C664.002 704.885 651.6 705.193 639.198 704.578C626.461 704.271 623.445 699.352 627.802 688.285C637.858 663.078 644.896 658.467 673.722 658.467C685.789 658.467 697.52 658.159 709.587 658.467C725.006 659.082 737.408 655.393 748.469 643.711C754.167 637.563 767.909 637.256 778.3 635.719C780.311 635.411 785.674 641.559 785.674 644.326C784.669 654.778 791.037 657.852 800.087 658.159C836.287 658.467 872.487 658.774 908.687 657.545C916.396 657.237 925.782 651.704 931.145 646.171C939.859 637.256 949.58 633.567 961.311 635.411C965.333 636.026 971.032 641.56 971.032 644.941C970.696 656.315 978.406 657.852 987.456 658.467C1006.9 659.696 1007.57 661.541 1000.53 678.141C993.154 695.663 982.093 705.808 960.306 704.885C947.569 704.271 937.513 711.034 934.161 721.793C921.424 760.219 890.922 782.352 855.393 802.333C780.646 844.756 807.461 838.3 720.313 838.915C683.778 839.222 646.907 838.915 610.372 838.915C592.272 838.915 590.596 835.534 596.63 820.163C604.674 799.26 619.087 791.267 643.22 792.497C670.37 794.341 697.185 793.111 723.665 793.111Z" fill="#EC0A95"/>
<path d="M475.963 750.996C487.024 715.337 497.75 682.137 507.135 648.322C510.152 637.563 511.493 625.882 511.493 614.508C512.163 586.841 500.096 568.089 470.935 561.326C437.081 553.333 401.887 550.259 367.028 545.341C359.654 544.419 352.28 544.419 344.906 541.959C372.391 539.808 400.546 538.885 427.696 534.889C454.846 530.893 481.996 525.667 507.806 517.367C543.335 506.3 569.144 482.015 587.915 452.811C607.02 423.3 623.444 392.252 640.874 361.511C644.896 354.748 648.248 347.37 653.611 340.915C645.902 364.585 636.852 387.948 630.483 411.926C625.455 430.985 621.098 450.352 619.757 469.719C618.081 498.308 630.148 516.752 660.65 523.822C694.504 531.815 729.698 534.889 764.557 539.5C771.931 540.422 779.306 540.422 786.68 542.574C758.859 544.726 731.039 546.263 703.554 549.645C683.443 552.104 662.996 555.485 643.22 560.404C607.02 569.319 575.848 586.841 555.737 615.737C530.598 652.626 509.146 691.667 486.354 729.785C483.002 736.548 479.985 742.696 475.963 750.996Z" fill="#EC0A95"/>
<path d="M1109.46 792.804C1144.66 792.804 1179.85 792.804 1215.05 792.804C1248.56 792.804 1272.03 777.433 1286.44 750.689C1299.85 726.096 1311.24 700.582 1323.98 675.989C1330.69 662.463 1341.08 657.237 1355.82 658.467C1365.54 659.389 1368.56 664.308 1365.21 671.993C1351.13 701.504 1337.05 731.015 1321.64 759.911C1317.95 766.982 1309.9 772.515 1302.86 777.126C1275.04 794.648 1246.89 812.171 1218.06 827.848C1206.67 833.996 1192.59 838.3 1179.52 838.3C1110.47 839.222 1041.42 838.915 972.372 838.608C954.943 838.608 952.932 834.611 958.965 819.548C966.674 799.259 981.087 791.267 1004.55 792.189C1039.07 793.726 1074.27 792.804 1109.46 792.804Z" fill="#EC0A95"/>
<path d="M2454.9 792.804C2489.76 792.804 2524.61 792.496 2559.14 792.804C2594.67 793.111 2618.8 777.126 2633.55 748.845C2645.95 724.867 2657.68 700.581 2669.75 676.296C2675.78 663.693 2686.17 657.545 2701.59 658.774C2710.64 659.389 2715.34 663.385 2711.31 671.685C2697.24 701.196 2683.16 730.707 2667.74 759.911C2664.05 766.982 2656.34 772.822 2648.97 777.433C2620.48 795.263 2592.32 812.785 2562.83 828.77C2551.76 834.611 2538.02 838.607 2525.29 838.915C2456.24 839.837 2387.19 839.53 2318.14 839.222C2299.37 839.222 2298.03 836.148 2304.73 819.548C2312.44 799.567 2326.52 792.189 2349.31 792.804C2384.17 793.726 2419.37 792.804 2454.9 792.804Z" fill="#EC0A95"/>
<path d="M1469.79 792.804C1504.65 792.804 1539.17 792.804 1574.03 792.804C1608.22 792.804 1632.02 777.741 1646.43 750.382C1659.5 725.789 1671.57 700.581 1683.97 675.374C1690 663.078 1700.06 657.544 1714.47 658.467C1724.53 659.081 1728.89 663.385 1724.86 672.3C1711.12 701.196 1697.71 729.785 1682.63 758.067C1678.61 765.444 1670.9 771.9 1663.19 776.818C1634.7 794.956 1605.87 812.785 1576.04 829.078C1565.65 834.918 1552.24 838.607 1539.84 838.915C1470.46 839.837 1400.74 839.53 1331.36 839.222C1314.26 839.222 1311.58 835.226 1317.95 821.085C1329.01 796.493 1334.71 793.111 1364.2 793.111C1399.4 792.804 1434.59 792.804 1469.79 792.804Z" fill="#EC0A95"/>
<path d="M2127.42 770.978C2120.05 774.667 2116.02 775.896 2113.01 778.048C2095.58 790.652 2075.8 794.648 2054.35 794.034C2028.21 793.419 2002.06 794.034 1975.92 794.034C1959.49 794.034 1956.48 789.115 1962.51 775.282C1973.91 750.074 1977.93 747.308 2008.09 747.308C2042.28 747.308 2076.81 747.308 2111 747.308C2128.76 747.308 2144.51 743.004 2159.26 733.474C2186.41 715.952 2214.9 699.967 2241.38 681.215C2266.19 663.693 2292.33 656.007 2323.5 657.852C2354.34 659.696 2355.35 659.696 2341.94 685.826C2335.24 699.045 2324.51 704.578 2309.09 704.578C2290.66 704.27 2271.89 704.578 2253.45 704.578C2220.94 704.578 2198.14 719.026 2184.07 744.848C2170.66 769.748 2158.59 795.57 2145.86 820.778C2140.16 832.152 2131.78 838.915 2117.36 838.915C2103.29 838.915 2099.94 834.611 2105.3 822.93C2111 810.941 2117.03 799.259 2122.73 787.271C2124.4 783.274 2125.07 778.663 2127.42 770.978Z" fill="#EC0A95"/>
<path d="M2003.74 699.352C1963.18 722.407 1927.31 752.226 1883.07 769.748C1882.06 768.211 1880.72 766.982 1879.72 765.445C1893.46 756.222 1906.87 747 1920.95 737.471C1903.85 724.867 1875.36 730.4 1865.64 747C1859.27 758.067 1852.9 769.441 1848.21 781.43C1839.16 803.256 1823.74 819.548 1800.28 829.078C1791.56 832.459 1783.52 837.378 1773.46 840.145C1782.18 818.934 1789.89 798.03 1808.66 781.122C1819.72 771.285 1827.09 757.145 1832.79 743.926C1836.81 734.704 1826.76 731.63 1817.71 731.63C1793.58 731.63 1769.11 731.63 1744.97 731.63C1739.95 731.63 1734.92 731.63 1729.22 729.478C1749.33 715.03 1766.43 697.2 1793.91 695.356C1805.31 694.741 1816.7 694.741 1828.1 694.741C1842.51 694.741 1855.59 693.511 1866.65 682.137C1876.7 671.685 1889.77 675.682 1897.15 687.056C1899.83 691.359 1908.88 694.126 1914.91 694.126C1938.04 695.048 1961.5 694.433 1984.97 694.433C1990.66 694.433 1996.03 694.433 2001.73 694.433C2002.4 695.971 2003.07 697.507 2003.74 699.352Z" fill="#EC0A95"/>
<path d="M3337.1 107.9C3333.08 118.045 3329.06 128.189 3324.7 138.333C3305.93 182.293 3286.16 225.637 3268.39 269.904C3255.32 302.489 3228.84 302.182 3200.68 297.878C3187.95 296.033 3189.62 284.967 3192.97 276.359C3199.01 261.296 3205.71 246.233 3212.41 231.17C3219.12 215.493 3226.16 199.507 3232.86 183.522C3240.91 164.77 3253.98 149.4 3272.75 138.333C3288.84 128.804 3304.26 118.967 3320.34 109.437C3324.7 106.978 3330.06 105.748 3334.76 103.904C3335.43 105.441 3336.43 106.67 3337.1 107.9Z" fill="#EC0A95"/>
<path d="M2489.42 704.578C2455.23 704.578 2420.71 704.578 2386.52 704.578C2368.08 704.578 2366.07 700.274 2372.11 684.904C2379.81 665.23 2393.56 657.852 2416.69 658.467C2483.39 659.696 2550.09 658.774 2616.79 658.774C2635.9 658.774 2637.24 661.848 2631.2 678.141C2623.49 697.815 2609.75 705.807 2586.62 704.885C2554.11 703.656 2521.6 704.578 2489.42 704.578Z" fill="#EC0A95"/>
<path d="M1166.44 658.467C1201.64 658.467 1236.83 658.467 1272.36 658.467C1289.46 658.467 1291.47 662.463 1285.77 676.604C1277.73 697.2 1263.65 705.193 1239.18 704.885C1173.48 703.656 1107.79 704.578 1041.76 704.578C1021.64 704.578 1019.63 700.582 1026.67 683.674C1034.38 665.23 1047.12 657.545 1069.24 658.467C1101.75 659.696 1133.93 658.467 1166.44 658.467Z" fill="#EC0A95"/>
<path d="M1510.68 658.467C1538.16 658.467 1565.99 658.467 1593.47 658.467C1609.22 658.467 1611.24 662.463 1606.21 675.989C1598.16 696.893 1583.75 705.808 1558.95 704.885C1509 703.348 1459.06 704.578 1409.12 704.578C1390.01 704.578 1388.34 700.582 1394.71 683.982C1402.41 664.922 1415.49 656.622 1437.94 657.852C1462.41 659.696 1486.55 658.467 1510.68 658.467Z" fill="#EC0A95"/>
<path d="M1481.18 723.637C1508.67 723.637 1536.49 723.637 1563.97 723.637C1578.05 723.637 1580.73 727.941 1575.37 739.93C1564.31 765.752 1558.28 769.748 1527.44 769.748C1477.83 769.748 1428.56 769.748 1378.95 769.748C1359.18 769.748 1357.16 765.752 1364.2 748.23C1371.91 729.478 1384.99 722.1 1406.77 723.022C1431.58 724.867 1456.38 723.637 1481.18 723.637Z" fill="#EC0A95"/>
<path d="M3202.36 346.756C3203.36 346.756 3208.73 346.141 3213.76 347.37C3224.15 349.83 3229.84 355.67 3226.16 365.815C3220.79 379.648 3215.43 393.789 3208.39 407.007C3198.67 425.144 3162.81 434.674 3144.37 423.915C3140.01 421.456 3136.33 412.541 3137.67 407.93C3142.03 393.481 3148.39 379.033 3155.77 365.2C3162.47 351.982 3176.89 346.756 3202.36 346.756Z" fill="#EC0A95"/>
<path d="M357.643 712.878C307.03 713.8 272.506 735.319 255.076 780.2C254.07 779.585 272.17 726.711 229.602 718.104C220.887 716.567 211.837 715.645 201.781 712.878C259.433 715.03 293.287 687.67 312.728 641.252C310.046 652.319 306.694 663.385 304.683 674.452C300.996 694.433 308.035 703.963 329.487 708.267C338.872 710.419 348.257 711.341 357.643 712.878Z" fill="#EC0A95"/>
<path d="M2871.2 660.926C2868.85 667.074 2866.84 672.915 2864.16 679.063C2853.77 703.348 2843.38 727.633 2832.65 751.919C2826.28 766.367 2812.54 772.822 2797.12 767.596C2794.1 766.674 2790.08 759.604 2791.09 757.145C2799.8 735.626 2806.51 712.263 2820.25 693.511C2831.31 678.448 2851.09 668.919 2867.17 656.93C2868.18 658.159 2869.86 659.696 2871.2 660.926Z" fill="#EC0A95"/>
<path d="M2805.17 660.926C2791.42 692.589 2778.01 724.559 2763.6 756.222C2758.57 766.981 2738.13 772.822 2727.74 766.674C2725.06 765.137 2723.04 758.989 2724.39 755.915C2732.43 735.933 2740.14 715.645 2750.19 696.585C2760.59 676.604 2784.05 670.456 2801.48 657.852C2802.82 658.774 2804.16 660.004 2805.17 660.926Z" fill="#EC0A95"/>
<path d="M2707.96 839.53C2691.54 839.53 2689.53 836.456 2695.56 822.315C2704.94 799.259 2713.66 792.496 2732.09 795.571C2735.78 796.185 2741.14 799.567 2742.15 802.641C2745.84 818.319 2725.73 839.53 2707.96 839.53Z" fill="#EC0A95"/>
<path d="M2775 839.53C2758.91 839.53 2756.56 836.456 2762.26 822.007C2771.31 799.259 2779.36 793.418 2797.79 795.263C2806.51 796.185 2810.53 799.259 2808.18 808.174C2801.48 831.844 2793.43 839.53 2775 839.53Z" fill="#EC0A95"/>
<path d="M1130.24 558.252C1127.23 565.63 1122.2 571.471 1115.83 575.774C1109.13 580.078 1102.42 581.922 1095.05 581.922H1075.27C1071.92 581.922 1068.57 581.308 1066.22 580.385C1063.54 579.156 1061.53 577.619 1060.19 575.467C1058.85 573.315 1058.18 570.856 1057.84 568.089C1057.84 565.015 1058.51 561.941 1059.86 558.252C1060.53 556.408 1061.87 554.87 1063.54 553.948C1065.22 553.026 1066.89 552.411 1068.57 552.411C1070.25 552.411 1071.25 553.026 1072.26 553.948C1073.26 554.87 1073.26 556.408 1072.26 558.252C1070.58 562.248 1070.58 565.015 1071.92 567.167C1073.26 569.319 1075.94 570.241 1079.97 570.241H1099.74C1103.76 570.241 1107.12 569.319 1110.13 567.167C1113.15 565.322 1115.5 562.248 1117.17 558.252L1121.86 547.185C1122.54 545.341 1123.21 543.804 1123.54 542.267C1123.88 540.73 1123.54 539.808 1122.54 538.578C1121.53 537.656 1119.52 537.041 1116.5 536.426C1113.49 536.119 1109.46 535.811 1103.76 535.811C1098.07 535.811 1093.04 535.504 1089.02 534.889C1084.99 534.274 1081.64 533.045 1079.63 531.2C1077.62 529.356 1076.28 526.589 1076.28 523.208C1076.28 519.826 1077.29 515.215 1079.63 509.682L1081.31 505.685C1082.98 501.996 1084.99 498.615 1087.34 495.848C1090.02 492.774 1092.7 490.315 1096.06 488.471C1099.07 486.319 1102.42 484.782 1106.11 483.859C1109.8 482.937 1113.15 482.322 1116.5 482.322H1136.28C1143.65 482.322 1148.68 484.474 1151.7 488.471C1154.71 492.774 1154.71 498.307 1151.36 505.685L1151.03 506.608C1150.36 508.452 1149.01 509.989 1147.34 510.911C1145.66 511.833 1143.99 512.448 1142.31 512.448C1140.64 512.448 1139.63 511.833 1138.62 510.911C1137.62 509.989 1137.62 508.452 1138.62 506.608L1138.96 505.685C1140.64 501.689 1140.64 498.922 1139.29 496.771C1137.95 494.926 1135.27 493.696 1131.25 493.696H1111.47C1107.45 493.696 1104.1 494.619 1101.08 496.771C1098.07 498.615 1095.72 501.689 1094.04 505.685L1092.37 509.682C1091.03 512.756 1090.36 515.215 1090.02 517.059C1089.69 518.904 1090.02 520.441 1091.03 521.67C1092.03 522.593 1094.04 523.515 1097.06 523.822C1100.08 524.13 1103.76 524.437 1108.79 524.437C1114.83 524.437 1119.85 524.745 1124.21 525.667C1128.23 526.282 1131.59 527.511 1133.6 529.356C1135.61 531.2 1136.95 533.352 1136.95 536.426C1136.95 539.5 1136.28 543.189 1134.27 547.493L1130.24 558.252Z" fill="#EC0A95"/>
<path d="M1244.21 531.508C1243.2 533.659 1242.2 535.196 1240.52 536.119C1238.84 537.041 1237.17 537.656 1235.49 537.656C1233.82 537.656 1232.81 537.041 1231.81 536.119C1230.8 535.196 1230.8 533.659 1231.47 531.815C1232.81 528.126 1232.81 525.359 1231.47 523.515C1230.13 521.671 1227.45 520.748 1223.43 520.748H1203.65C1199.63 520.748 1196.28 521.67 1193.26 523.822C1190.24 525.667 1187.9 528.741 1186.22 532.737L1175.16 558.559C1173.48 562.556 1173.48 565.322 1174.82 567.474C1176.16 569.319 1178.85 570.548 1182.87 570.548H1202.64C1206.33 570.548 1210.02 569.626 1213.04 567.782C1216.05 565.937 1218.4 562.863 1220.07 559.174C1220.74 557.33 1222.09 555.793 1223.76 554.87C1225.44 553.948 1227.11 553.333 1228.79 553.333C1230.46 553.333 1231.81 553.948 1232.48 554.87C1233.15 555.793 1233.15 557.33 1232.48 559.482C1229.46 566.552 1224.77 572.085 1218.06 576.389C1211.36 580.385 1204.66 582.537 1197.28 582.537H1177.51C1174.15 582.537 1170.8 581.922 1168.46 581C1165.77 580.078 1163.76 578.233 1162.42 576.389C1161.08 574.237 1160.08 571.778 1160.08 569.011C1160.08 565.937 1160.75 562.863 1162.42 559.174L1173.48 533.352C1175.16 529.663 1177.17 526.282 1179.52 523.515C1182.2 520.441 1184.88 517.982 1188.23 516.137C1191.25 513.985 1194.6 512.448 1198.29 511.526C1201.97 510.604 1205.33 509.989 1208.68 509.989H1228.45C1232.14 509.989 1235.16 510.604 1237.84 511.526C1240.52 512.448 1242.53 513.985 1243.87 516.137C1245.21 517.982 1246.22 520.441 1246.22 523.207C1246.55 525.052 1245.88 528.126 1244.21 531.508Z" fill="#EC0A95"/>
<path d="M1328 576.389C1327.33 578.233 1325.99 579.771 1324.32 580.693C1322.64 581.615 1320.96 582.23 1319.29 582.23C1317.61 582.23 1316.61 581.615 1315.6 580.693C1314.6 579.771 1314.6 578.233 1315.6 576.389L1334.04 532.43C1335.71 528.433 1335.71 525.667 1334.37 523.515C1333.03 521.671 1330.35 520.441 1326.33 520.441H1306.55C1302.53 520.441 1299.18 521.363 1295.83 523.515C1292.47 525.667 1290.13 528.433 1288.45 532.43L1269.68 576.696C1269.01 578.541 1267.67 580.078 1265.99 581C1264.32 581.922 1262.64 582.537 1260.97 582.537C1259.29 582.537 1258.29 581.922 1257.28 581C1256.27 580.078 1256.27 578.541 1257.28 576.696L1298.17 480.17C1298.84 478.326 1300.18 476.789 1301.86 475.867C1303.54 474.945 1305.21 474.33 1306.89 474.33C1308.56 474.33 1309.57 474.945 1310.57 475.867C1311.58 476.789 1311.58 478.326 1310.57 480.17L1297.5 511.526C1301.52 509.682 1306.22 508.759 1311.24 508.759H1331.02C1338.39 508.759 1343.42 510.911 1346.44 514.907C1349.46 519.211 1349.46 524.745 1346.44 532.43L1328 576.389Z" fill="#EC0A95"/>
<path d="M1438.28 558.559C1435.26 565.937 1430.24 571.778 1423.87 575.774C1417.16 580.078 1410.46 581.922 1403.09 581.922H1383.31C1379.96 581.922 1376.61 581.308 1374.26 580.385C1371.58 579.463 1369.57 577.619 1368.23 575.774C1366.89 573.622 1365.88 571.163 1365.88 568.396C1365.88 565.322 1366.55 562.248 1368.23 558.559L1379.29 532.737C1380.96 529.048 1382.97 525.667 1385.32 522.9C1388 519.826 1390.68 517.367 1394.04 515.522C1397.05 513.37 1400.4 511.833 1404.09 510.911C1407.78 509.989 1411.13 509.374 1414.48 509.374H1434.26C1441.63 509.374 1446.66 511.526 1449.68 515.522C1452.69 519.826 1452.69 525.359 1449.68 533.045L1438.28 558.559ZM1436.6 532.43C1438.28 528.433 1438.28 525.667 1436.94 523.515C1435.6 521.671 1432.92 520.441 1428.89 520.441H1409.12C1405.1 520.441 1401.74 521.363 1398.73 523.515C1395.71 525.359 1393.36 528.433 1391.69 532.43L1380.63 558.252C1378.95 562.248 1378.95 565.015 1380.29 567.167C1381.63 569.011 1384.31 570.241 1388.34 570.241H1408.11C1412.14 570.241 1415.49 569.319 1418.5 567.167C1421.52 565.322 1423.87 562.248 1425.54 558.252L1436.6 532.43Z" fill="#EC0A95"/>
<path d="M1540.85 558.559C1537.83 565.937 1532.8 571.778 1526.43 575.774C1519.73 580.078 1513.03 581.922 1505.65 581.922H1485.88C1482.52 581.922 1479.17 581.308 1476.83 580.385C1474.14 579.463 1472.13 577.619 1470.79 575.774C1469.45 573.622 1468.45 571.163 1468.45 568.396C1468.45 565.322 1469.12 562.248 1470.79 558.559L1481.85 532.737C1483.53 529.048 1485.54 525.667 1487.89 522.9C1490.57 519.826 1493.25 517.367 1496.6 515.522C1499.62 513.37 1502.97 511.833 1506.66 510.911C1510.34 509.989 1513.7 509.374 1517.05 509.374H1536.82C1544.2 509.374 1549.23 511.526 1552.24 515.522C1555.26 519.826 1555.26 525.359 1552.24 533.045L1540.85 558.559ZM1539.17 532.43C1540.85 528.433 1540.85 525.667 1539.51 523.515C1538.16 521.671 1535.48 520.441 1531.46 520.441H1511.69C1507.66 520.441 1504.31 521.363 1501.29 523.515C1498.28 525.359 1495.93 528.433 1494.26 532.43L1483.19 558.252C1481.52 562.248 1481.52 565.015 1482.86 567.167C1484.2 569.011 1486.88 570.241 1490.9 570.241H1510.68C1514.7 570.241 1518.05 569.319 1521.07 567.167C1524.09 565.322 1526.43 562.248 1528.11 558.252L1539.17 532.43Z" fill="#EC0A95"/>
<path d="M1638.72 576.082C1638.05 577.619 1637.04 578.848 1635.37 580.078C1633.69 581.308 1632.02 581.922 1630.01 581.922H1567.66C1565.65 581.922 1564.31 581.308 1563.64 580.078C1562.97 578.848 1562.97 577.619 1563.64 576.082C1564.31 574.545 1565.31 573.315 1566.99 572.085C1568.67 570.856 1570.34 570.241 1572.35 570.241H1598.16L1631.35 491.237H1614.92C1612.91 491.237 1611.57 490.622 1610.9 489.393C1610.23 488.163 1610.23 486.934 1610.9 485.396C1611.57 483.859 1612.58 482.63 1614.25 481.4C1615.93 480.171 1617.6 479.556 1619.61 479.556H1640.4C1642.41 479.556 1644.08 480.171 1645.09 481.708C1646.09 483.245 1646.09 485.089 1645.42 486.934L1610.23 569.934H1634.03C1636.04 569.934 1637.38 570.548 1638.05 571.778C1639.39 573.008 1639.39 574.237 1638.72 576.082Z" fill="#EC0A95"/>
<path d="M1817.71 577.004C1817.04 578.541 1816.03 579.77 1814.36 581C1812.68 582.23 1811.01 582.845 1808.66 582.845H1744.3C1742.29 582.845 1740.95 582.23 1740.28 581C1739.61 579.77 1739.61 578.541 1740.28 576.696C1740.95 575.159 1741.96 573.93 1743.63 572.7C1745.31 571.471 1746.99 570.856 1749.33 570.856H1776.15L1794.92 520.748H1778.16C1776.15 520.748 1774.81 520.134 1774.14 518.904C1773.46 517.674 1773.46 516.445 1774.14 514.6C1774.81 513.063 1775.81 511.834 1777.49 510.604C1779.16 509.374 1780.84 508.759 1783.19 508.759H1804.64C1806.98 508.759 1808.66 509.682 1809.66 511.219C1810.67 512.756 1811.01 514.6 1810 516.752L1789.55 571.163H1814.02C1816.03 571.163 1817.37 571.778 1818.04 573.008C1818.38 574.237 1818.38 575.467 1817.71 577.004ZM1826.42 486.933C1825.08 490.622 1822.4 493.696 1819.05 496.156C1815.36 498.615 1811.68 499.845 1807.65 499.845C1803.63 499.845 1800.95 498.615 1798.94 496.156C1797.26 493.696 1796.93 490.622 1798.27 486.933C1799.61 483.245 1802.29 480.171 1805.64 477.711C1809.33 475.252 1813.02 474.022 1817.04 474.022C1821.06 474.022 1823.74 475.252 1825.75 477.711C1827.43 480.171 1827.76 483.245 1826.42 486.933Z" fill="#EC0A95"/>
<path d="M1923.63 559.174C1920.95 566.552 1916.25 572.7 1909.55 576.697C1902.85 581 1896.14 583.152 1888.43 583.152H1867.99C1864.3 583.152 1861.28 582.537 1858.6 581.615C1855.92 580.385 1853.57 578.848 1852.23 577.004C1850.56 574.852 1849.55 572.393 1849.55 569.626C1849.22 566.552 1849.89 563.171 1851.23 559.482L1860.95 533.352C1862.29 529.663 1864.3 526.282 1866.65 523.208C1868.99 520.134 1872.01 517.674 1875.03 515.83C1878.04 513.678 1881.39 512.141 1885.08 511.219C1888.77 510.297 1892.12 509.682 1895.81 509.682H1916.25C1920.95 509.682 1924.97 510.604 1928.32 512.448L1940.39 480.785C1941.06 478.941 1942.4 477.404 1944.07 476.482C1945.75 475.559 1947.43 474.945 1949.1 474.945C1950.78 474.945 1952.12 475.559 1953.12 476.482C1954.13 477.404 1954.13 478.941 1953.46 480.785L1923.63 559.174ZM1920.28 533.045C1921.62 529.048 1921.62 525.974 1920.28 524.13C1918.6 522.285 1915.92 521.056 1911.9 521.056H1891.45C1887.43 521.056 1884.08 521.978 1880.72 524.13C1877.71 525.974 1875.36 529.048 1873.69 533.045L1863.96 559.174C1862.62 563.171 1862.62 566.245 1864.3 568.089C1865.98 569.934 1868.66 571.163 1872.68 571.163H1893.13C1897.15 571.163 1900.84 570.241 1903.85 568.089C1906.87 566.245 1909.21 563.171 1910.56 559.174L1920.28 533.045Z" fill="#EC0A95"/>
<path d="M2025.19 559.174C2022.51 566.552 2017.81 572.7 2011.11 576.696C2004.41 581 1997.7 583.152 1989.99 583.152H1969.55C1965.86 583.152 1962.84 582.537 1960.16 581.615C1957.48 580.385 1955.14 578.848 1953.79 577.004C1952.12 574.852 1951.45 572.393 1951.11 569.626C1950.78 566.552 1951.45 563.17 1952.79 559.482L1962.51 533.045C1963.85 529.356 1965.86 525.974 1968.21 522.9C1970.55 519.826 1973.57 517.367 1976.59 515.522C1979.6 513.37 1982.96 511.833 1986.64 510.911C1990.33 509.989 1993.68 509.374 1997.37 509.374H2017.81C2025.19 509.374 2030.55 511.526 2034.24 515.83C2037.59 520.134 2037.93 525.974 2035.24 533.352L2025.19 559.174ZM2022.17 533.045C2023.51 529.048 2023.51 525.974 2022.17 524.13C2020.5 522.285 2017.81 521.056 2013.79 521.056H1993.35C1989.32 521.056 1985.97 521.978 1982.62 524.13C1979.6 525.974 1977.26 529.048 1975.58 533.045L1965.86 559.482C1964.52 563.478 1964.52 566.552 1966.2 568.396C1967.87 570.241 1970.55 571.47 1974.58 571.47H1995.02C1999.04 571.47 2002.73 570.548 2005.75 568.396C2008.76 566.552 2011.11 563.478 2012.45 559.482L2022.17 533.045Z" fill="#EC0A95"/>
<path d="M2123.06 577.004C2122.39 578.541 2121.39 579.77 2119.71 581C2118.04 582.23 2116.36 582.845 2114.01 582.845H2049.66C2047.65 582.845 2046.31 582.23 2045.64 581C2044.96 579.77 2044.96 578.541 2045.64 576.696C2046.31 575.159 2047.31 573.93 2048.99 572.7C2050.66 571.471 2052.34 570.856 2054.69 570.856H2081.5L2111.67 490.93H2094.91C2092.9 490.93 2091.56 490.315 2090.89 489.085C2090.21 487.856 2090.21 486.626 2090.89 484.782C2091.56 483.245 2092.56 482.015 2094.24 480.785C2095.91 479.556 2097.59 478.941 2099.94 478.941H2121.39C2123.73 478.941 2125.41 479.556 2126.41 481.4C2127.42 482.937 2127.76 484.782 2126.75 486.933L2095.24 571.163H2119.71C2121.72 571.163 2123.06 571.778 2123.73 573.008C2123.73 574.237 2123.73 575.467 2123.06 577.004Z" fill="#EC0A95"/>
<path d="M2306.07 563.17C2304.73 567.167 2302.39 570.856 2300.04 573.93C2297.36 577.004 2294.34 579.77 2290.99 581.922C2287.64 584.074 2284.29 585.611 2280.26 586.841C2276.58 588.07 2272.56 588.685 2268.87 588.685H2247.08C2242.05 588.685 2237.7 587.763 2234.34 585.919L2222.95 616.044C2222.28 618.196 2220.94 619.733 2219.26 620.656C2217.59 621.885 2215.57 622.193 2213.9 622.193C2212.22 622.193 2210.88 621.578 2209.88 620.656C2208.87 619.426 2208.54 617.889 2209.54 616.044L2239.71 535.811C2242.72 527.819 2247.75 521.67 2254.46 517.059C2261.49 512.448 2268.87 510.296 2276.58 510.296H2298.36C2302.05 510.296 2305.4 510.911 2308.42 512.141C2311.44 513.37 2313.78 514.907 2315.46 517.059C2317.14 519.211 2318.14 521.978 2318.48 525.052C2318.81 528.126 2318.14 531.815 2316.8 535.811L2306.07 563.17ZM2302.72 535.504C2304.4 531.2 2304.4 528.126 2302.39 525.974C2300.71 523.822 2297.69 522.9 2293.67 522.9H2271.89C2267.53 522.9 2263.84 523.822 2260.49 525.974C2257.14 528.126 2254.79 531.2 2253.11 535.504L2242.72 563.17C2241.05 567.474 2241.05 570.548 2242.72 572.7C2244.4 574.852 2247.42 575.774 2251.77 575.774H2273.56C2277.92 575.774 2281.61 574.852 2284.96 572.7C2288.31 570.548 2290.66 567.474 2292.33 563.17L2302.72 535.504Z" fill="#EC0A95"/>
<path d="M2426.41 535.504C2425.74 537.656 2424.39 539.193 2422.72 540.115C2421.04 541.345 2419.03 541.652 2417.36 541.652C2415.68 541.652 2414.34 541.037 2413.33 540.115C2412.33 538.885 2412.33 537.348 2413 535.504C2414.67 531.2 2414.67 528.126 2413 525.974C2411.32 523.822 2408.31 522.9 2403.95 522.9H2394.23C2389.87 522.9 2386.18 523.822 2382.83 525.974C2379.48 528.126 2377.13 531.2 2375.46 535.504L2360.37 575.774H2382.16C2384.51 575.774 2385.85 576.389 2386.52 577.619C2387.19 578.848 2387.19 580.385 2386.52 581.922C2385.85 583.459 2384.84 584.996 2383.17 586.226C2381.49 587.456 2379.48 588.071 2377.13 588.071H2328.87C2326.52 588.071 2325.18 587.456 2324.51 586.226C2323.84 584.996 2323.84 583.459 2324.51 581.922C2325.18 580.385 2326.19 578.848 2327.86 577.619C2329.54 576.389 2331.55 575.774 2333.89 575.774H2346.63L2366.41 522.9H2353.67C2351.32 522.9 2349.98 522.285 2349.31 521.056C2348.64 519.826 2348.64 518.289 2349.31 516.752C2349.98 515.215 2350.99 513.678 2352.66 512.448C2354.34 511.219 2356.35 510.604 2358.7 510.604H2376.13C2377.47 510.604 2378.81 510.911 2379.81 511.833C2380.82 512.448 2381.83 513.371 2382.16 514.6C2384.84 513.371 2387.52 512.448 2390.21 511.833C2392.89 511.219 2395.9 510.911 2398.59 510.911H2408.31C2416.35 510.911 2422.05 513.063 2425.4 517.674C2429.09 521.363 2429.42 527.511 2426.41 535.504Z" fill="#EC0A95"/>
<path d="M2514.89 563.478C2511.88 571.471 2506.85 577.619 2500.15 582.23C2493.11 586.841 2485.73 588.993 2478.02 588.993H2456.24C2452.55 588.993 2449.2 588.378 2446.18 587.148C2443.16 585.919 2440.82 584.382 2439.14 582.23C2437.47 580.078 2436.46 577.311 2436.13 574.237C2435.79 571.163 2436.46 567.474 2437.8 563.478L2448.19 535.504C2449.53 531.507 2451.88 527.819 2454.23 524.745C2456.91 521.67 2459.92 518.904 2463.28 516.752C2466.63 514.6 2469.98 513.063 2474 511.833C2477.69 510.604 2481.71 509.989 2485.4 509.989H2507.19C2515.23 509.989 2520.93 512.141 2524.28 516.752C2527.97 521.363 2528.3 527.511 2525.29 535.504L2514.89 563.478ZM2511.54 535.504C2513.22 531.2 2513.22 528.126 2511.54 525.974C2509.87 523.822 2506.85 522.9 2502.49 522.9H2480.71C2476.35 522.9 2472.66 523.822 2469.31 525.974C2465.96 528.126 2463.61 531.2 2461.94 535.504L2451.54 563.478C2449.87 567.782 2449.87 570.856 2451.88 573.008C2453.56 575.159 2456.57 576.082 2460.59 576.082H2482.38C2486.74 576.082 2490.43 575.159 2493.78 573.008C2497.13 570.856 2499.48 567.782 2501.15 563.478L2511.54 535.504Z" fill="#EC0A95"/>
<path d="M2583.61 593.911C2580.59 601.904 2575.56 608.052 2568.86 612.663C2562.16 617.274 2554.45 619.426 2546.4 619.426H2536.68C2528.97 619.426 2523.61 617.582 2520.93 614.2C2518.25 610.819 2516.91 606.515 2516.91 601.289C2516.91 600.674 2516.91 600.059 2516.91 599.444C2516.91 598.83 2517.24 598.215 2517.24 597.907C2517.91 596.063 2519.25 594.526 2521.26 593.296C2523.27 592.067 2524.95 591.759 2526.96 591.759C2528.3 591.759 2529.64 592.067 2530.65 592.989C2531.65 593.604 2531.99 594.833 2531.99 596.678C2531.65 600.674 2532.32 603.133 2533.66 604.67C2535.01 606.207 2537.69 606.822 2541.71 606.822H2551.43C2555.79 606.822 2559.47 605.9 2562.83 603.748C2566.18 601.596 2568.52 598.522 2570.2 594.219L2597.01 523.207H2585.28C2582.94 523.207 2581.6 522.593 2580.93 521.363C2580.26 520.133 2580.26 518.596 2580.93 517.059C2581.6 515.522 2582.6 513.985 2584.28 512.756C2585.95 511.526 2587.96 510.911 2590.31 510.911H2609.08C2610.76 510.911 2612.43 511.526 2613.1 512.756C2614.11 513.985 2614.11 515.522 2613.44 517.059L2583.61 593.911ZM2627.18 486.933C2625.84 490.93 2623.16 494.004 2619.47 496.463C2615.79 498.922 2611.76 500.459 2607.41 500.459C2603.05 500.459 2600.03 499.23 2598.36 496.463C2596.34 494.004 2596.34 490.622 2597.69 486.933C2599.03 482.937 2601.71 479.863 2605.73 477.096C2609.75 474.33 2613.77 473.1 2617.8 473.1C2622.15 473.1 2625.17 474.33 2626.85 477.096C2628.52 479.863 2628.52 482.937 2627.18 486.933Z" fill="#EC0A95"/>
<path d="M2723.04 545.341C2721.7 548.415 2719.69 550.874 2716.68 552.719C2713.66 554.563 2710.98 555.485 2708.3 555.485H2656.01L2652.99 563.17C2651.31 567.474 2651.31 570.548 2653.33 572.7C2655 574.852 2658.02 575.774 2662.04 575.774H2682.82C2687.18 575.774 2690.53 574.852 2693.55 573.315C2696.56 571.778 2698.91 569.626 2700.59 567.167C2701.59 565.63 2702.93 564.4 2704.61 563.785C2705.95 563.17 2707.63 562.863 2708.97 562.863C2710.64 562.863 2712.32 563.478 2713.32 564.4C2714.33 565.322 2714.66 566.859 2713.99 568.704C2713.99 568.704 2713.66 569.011 2713.66 569.319C2713.32 569.626 2713.32 570.241 2712.99 570.856C2709.64 576.389 2704.94 580.693 2698.58 583.767C2692.54 586.841 2685.84 588.378 2678.8 588.378H2658.02C2654.33 588.378 2650.98 587.763 2647.96 586.533C2644.95 585.304 2642.6 583.767 2640.92 581.615C2639.25 579.463 2638.24 576.696 2637.91 573.622C2637.57 570.548 2638.24 566.859 2639.58 562.863L2649.97 535.196C2651.31 531.2 2653.66 527.511 2656.01 524.437C2658.69 521.363 2661.71 518.596 2665.06 516.444C2668.41 514.293 2671.76 512.756 2675.78 511.526C2679.47 510.296 2683.49 509.682 2687.18 509.682H2708.97C2717.01 509.682 2722.71 511.833 2726.06 516.444C2729.75 521.056 2730.08 527.204 2727.07 535.196L2723.04 545.341ZM2712.99 535.504C2714.66 531.2 2714.66 528.126 2712.99 525.974C2711.31 523.822 2708.3 522.9 2703.94 522.9H2682.15C2677.79 522.9 2674.11 523.822 2670.76 525.974C2667.4 528.126 2665.06 531.2 2663.38 535.504L2660.7 542.882H2709.97L2712.99 535.504Z" fill="#EC0A95"/>
<path d="M2824.61 534.582C2823.94 536.733 2822.59 538.27 2820.58 539.5C2818.91 540.73 2816.9 541.037 2815.22 541.037C2813.54 541.037 2812.2 540.422 2811.2 539.5C2810.19 538.578 2809.86 537.041 2810.53 534.889C2811.87 530.893 2811.87 527.819 2810.19 525.974C2808.52 523.822 2805.5 522.9 2801.48 522.9H2779.69C2775.33 522.9 2771.65 523.822 2768.29 525.974C2764.94 528.126 2762.6 531.2 2760.92 535.504L2750.53 563.478C2748.85 567.782 2748.85 570.856 2750.86 573.007C2752.54 575.159 2755.56 576.082 2759.58 576.082H2781.37C2785.72 576.082 2789.41 575.159 2792.43 573.007C2795.78 570.856 2798.13 567.782 2799.8 563.785C2800.47 561.633 2801.81 560.096 2803.82 559.174C2805.5 558.252 2807.51 557.637 2809.19 557.637C2810.86 557.637 2812.54 558.252 2813.54 559.174C2814.55 560.404 2814.55 561.941 2813.88 564.093C2810.86 571.778 2806.17 577.619 2799.13 582.23C2792.09 586.533 2784.72 588.685 2777.01 588.685H2755.22C2751.54 588.685 2748.18 588.07 2745.17 586.841C2742.15 585.611 2739.8 584.074 2738.13 581.922C2736.45 579.771 2735.45 577.004 2735.11 573.93C2734.78 570.856 2735.45 567.167 2736.79 563.17L2747.18 535.196C2748.52 531.2 2750.86 527.511 2753.21 524.437C2755.89 521.363 2758.91 518.596 2762.26 516.444C2765.61 514.293 2768.96 512.756 2772.99 511.526C2776.67 510.296 2780.7 509.682 2784.38 509.682H2806.17C2810.19 509.682 2813.54 510.296 2816.56 511.526C2819.58 512.756 2821.92 514.293 2823.6 516.444C2825.28 518.596 2826.28 521.056 2826.62 524.13C2826.62 527.511 2825.95 530.893 2824.61 534.582Z" fill="#EC0A95"/>
<path d="M2915.44 566.245C2915.11 566.859 2915.11 567.474 2914.44 568.089C2914.1 568.704 2913.76 569.319 2913.43 569.626C2909.74 575.467 2905.05 580.078 2899.69 583.767C2894.32 587.148 2887.62 588.993 2879.24 588.993H2870.86C2862.82 588.993 2857.12 586.841 2853.77 582.23C2850.08 577.619 2849.74 571.471 2852.76 563.478L2867.84 522.9H2855.11C2852.76 522.9 2851.42 522.285 2850.75 521.056C2850.08 519.826 2850.08 518.289 2850.75 516.752C2851.42 515.215 2852.43 513.678 2854.1 512.448C2855.78 511.219 2857.79 510.604 2860.14 510.604H2872.87L2882.26 485.396C2882.93 483.245 2884.27 481.708 2885.94 480.785C2887.62 479.556 2889.63 479.248 2891.31 479.248C2892.98 479.248 2894.32 479.863 2895.33 480.785C2896.34 482.015 2896.34 483.552 2895.66 485.396L2886.28 510.604H2918.12C2920.47 510.604 2921.81 511.219 2922.48 512.448C2923.15 513.678 2923.15 515.215 2922.48 516.752C2921.81 518.289 2920.8 519.826 2919.13 521.056C2917.45 522.285 2915.44 522.9 2913.09 522.9H2881.25L2866.17 563.478C2864.49 567.782 2864.49 570.856 2866.17 573.008C2867.84 575.159 2870.86 576.082 2875.22 576.082H2883.6C2888.29 576.082 2891.98 575.159 2894.32 573.622C2896.67 572.085 2899.02 569.011 2902.03 565.015C2903.04 563.478 2904.38 561.941 2906.06 561.326C2907.4 560.404 2909.07 560.096 2910.41 560.096C2912.09 560.096 2913.76 560.711 2914.77 561.633C2916.11 562.863 2916.45 564.4 2915.44 566.245Z" fill="#EC0A95"/>
</svg>
