<svg width="2041" height="2041" viewBox="0 0 2041 2041" fill="none" xmlns="http://www.w3.org/2000/svg">
<path fill-rule="evenodd" clip-rule="evenodd" d="M1020.23 6.21021C1580.26 6.21021 2034.25 460.263 2034.25 1020.36C2034.25 1580.46 1580.26 2034.51 1020.23 2034.51C460.203 2034.51 6.21021 1580.46 6.21021 1020.36C6.24405 460.278 460.218 6.24408 1020.23 6.21021Z" stroke="#004A6D" stroke-width="12.4204" stroke-miterlimit="22.93"/>
<path fill-rule="evenodd" clip-rule="evenodd" d="M1024.03 317.2C1409.34 316.624 1722.16 628.557 1722.74 1013.92C1723.32 1399.29 1411.42 1712.15 1026.11 1712.72C640.796 1713.3 327.973 1401.37 327.397 1016C327.397 1015.65 327.397 1015.31 327.397 1014.96C327.093 629.905 638.958 317.505 1023.97 317.2C1023.98 317.2 1024.01 317.2 1024.03 317.2Z" stroke="#C2C1BD" stroke-width="4.84639" stroke-miterlimit="22.93"/>
<path fill-rule="evenodd" clip-rule="evenodd" d="M462.126 874.669L1081.97 559.684L1088.95 827.507L927.037 906.698C824.648 829.102 666.106 818.814 462.126 874.669Z" fill="#DFDFDD"/>
<path fill-rule="evenodd" clip-rule="evenodd" d="M1105.11 684.676L1401.61 533.341L1418.7 1023.3C1389.12 970.998 1360.77 917.222 1332.97 896.217L1327.52 706.358L1170.57 788.976L1108.96 783.647L1105.11 684.676Z" fill="#C3C3C0"/>
<path fill-rule="evenodd" clip-rule="evenodd" d="M439.708 1178L1309.27 736.553L1333.77 1514.85C1159.12 1129.75 850.059 1041.67 439.708 1178Z" fill="white"/>
<path d="M899.406 1551.12V1521.72C900.238 1515.95 897.44 1510.25 892.363 1507.38C890.165 1506.83 888.608 1504.87 888.565 1502.61C888.565 1500.65 890.343 1499.24 893.771 1498.32C895.4 1498.03 896.987 1497.54 898.486 1496.85C900.618 1495.9 902.67 1494.78 904.611 1493.48C906.754 1491.67 909.361 1490.5 912.143 1490.11C917.102 1490.11 919.614 1492.99 919.614 1498.75V1551.36C918.713 1560.3 920.919 1565.87 926.227 1568.08C930.268 1570.96 932.35 1573.35 931.86 1575.31C931.372 1577.27 930.758 1578.18 928.553 1578.18C926.35 1578.18 923.838 1578.18 919.184 1577.69C914.532 1577.21 911.162 1576.84 909.143 1576.84C906.246 1576.84 902.325 1577.02 897.384 1577.39C893.28 1577.39 890.464 1577.88 888.872 1577.88C887.28 1577.88 885.565 1576.84 885.565 1575C885.565 1573.16 887.157 1571.02 891.261 1568.87C897.384 1566.36 900.14 1560.42 899.222 1551.18L899.406 1551.12ZM954.947 1520.06C956.785 1503.47 964.5 1493.42 977.973 1489.87C979.386 1489.72 980.649 1490.75 980.795 1492.17C980.812 1492.36 980.812 1492.55 980.79 1492.75C980.41 1494.29 979.766 1495.77 978.891 1497.1C976.183 1501.75 974.732 1507.02 974.666 1512.41C974.108 1521.62 978.866 1530.35 986.913 1534.88C990.036 1536.78 991.567 1538.37 991.567 1539.66C991.567 1543.15 987.524 1544.93 979.319 1544.93C963.642 1543.34 955.437 1535.01 954.824 1520.06H954.947ZM962.908 1578.37C998.671 1574.86 1017.63 1558.28 1019.8 1528.64C1018.86 1506.67 1008.34 1493.75 988.261 1489.87C986.116 1489.56 985.014 1490.36 985.014 1492.32C985.479 1493.75 986.277 1495.05 987.34 1496.12C994.494 1505.47 998.463 1516.87 998.671 1528.64C998.671 1549.03 987.831 1563.12 966.215 1570.71C960.519 1572.67 957.763 1574.27 957.763 1575.55C957.763 1576.84 959.478 1578.37 962.908 1578.37ZM1040.98 1523.86L1054.58 1491.34H1065.91C1070.34 1493.32 1075.14 1494.31 1079.99 1494.22C1082.88 1494.32 1085.76 1493.82 1088.44 1492.75C1089.29 1492.68 1090.1 1492.36 1090.77 1491.83C1091.88 1491.58 1093.01 1491.41 1094.14 1491.34C1095.97 1491.34 1096.89 1492.44 1096.89 1494.71C1093.16 1503.59 1082.5 1508.73 1064.93 1510.02C1062.57 1510.04 1060.22 1509.88 1057.89 1509.53C1057.45 1509.27 1056.97 1509.1 1056.48 1509.04L1047.54 1528.64C1047.25 1529.62 1046.15 1530.11 1044.23 1530.11C1041.72 1529.8 1040.49 1528.64 1040.49 1526.74C1040.57 1526.22 1040.73 1525.73 1040.98 1525.27V1523.86ZM1058.87 1528.64C1070.44 1528.94 1076.38 1534.39 1076.69 1544.93C1075.17 1560.85 1066.26 1569.3 1049.92 1570.29C1046.6 1570.19 1043.29 1569.86 1040 1569.3L1037.19 1568.81C1035.29 1568.81 1034.25 1569.92 1033.94 1572.18C1034.25 1576.29 1040.98 1578.31 1054.15 1578.31C1080.77 1577.69 1095.34 1566.55 1097.87 1544.87C1096.59 1528.57 1087.53 1520 1070.56 1519.02C1059.91 1519.33 1054.27 1521.59 1053.66 1525.7C1053.66 1527.66 1055.07 1528.57 1058.87 1528.57V1528.64ZM1143.49 1553.5C1135.28 1559.38 1127.7 1566.12 1120.9 1573.59C1118.08 1576.53 1116.06 1577.94 1114.77 1577.94C1112.51 1577.57 1111.47 1576.53 1111.47 1574.57C1111.47 1571.08 1116.43 1564.53 1126.47 1554.97C1144.06 1539.95 1152.38 1527.7 1151.39 1518.22C1151.39 1509.28 1147.05 1504.63 1139.15 1504.32C1134.14 1504.43 1129.33 1506.3 1125.55 1509.59C1124.08 1510.87 1122.28 1511.7 1120.35 1511.98C1118.51 1511.98 1117.53 1510.87 1117.53 1508.67C1122.27 1497.16 1131.84 1490.91 1146.25 1489.93C1162.86 1491.28 1171.48 1499.26 1172.09 1513.88C1172.7 1526.98 1163.15 1540.15 1143.43 1553.57L1143.49 1553.5ZM1130.82 1576.84C1132.04 1576.84 1134.25 1576.84 1137.37 1576.47C1139.99 1575.87 1142.65 1575.55 1145.33 1575.49C1148.82 1575.6 1152.28 1576.05 1155.68 1576.84C1158.63 1577.43 1161.62 1577.78 1164.62 1577.88C1171.18 1577.21 1175.58 1571.14 1177.79 1559.51C1178.4 1555.63 1175.75 1551.99 1171.87 1551.39C1171.2 1551.27 1170.51 1551.27 1169.83 1551.36C1166.17 1551.96 1162.83 1553.83 1160.4 1556.63C1155.38 1561.69 1148.99 1565.18 1142.03 1566.67C1130.39 1568.87 1125.25 1571.14 1126.47 1573.35C1126.53 1575.79 1127.94 1576.84 1130.82 1576.84Z" fill="white"/>
<path fill-rule="evenodd" clip-rule="evenodd" d="M350.112 644.259C359.969 630.966 360.092 608.797 356.235 588.097C353.052 576.519 338.967 569.355 318.88 574.804C306.634 580.01 295.182 597.283 290.037 608.797C259.419 612.778 264.748 618.288 273.443 629.988L266.216 640.336L246.559 619.635C255.557 612.527 261.406 602.171 262.849 590.79C258.992 590.302 250.233 587.546 245.765 589.749C242.825 593.913 239.64 598.017 236.945 602C226.985 594.791 217.495 586.958 208.531 578.541C189.793 577.44 189.364 585.524 187.833 593.056C214.839 605.918 223.228 613.452 225.617 618.411C220.105 641.686 214.574 664.959 209.021 688.232L222.983 690.314L240.619 638.07C251.337 647.015 257.827 662.57 258.194 687.068C263.707 705.993 271.912 718.365 286.607 724.488C294.815 725.59 301.916 724.978 303.204 716.524C297.081 704.645 289.547 698.152 277.851 686.517C277.361 681.556 283.974 682.23 288.689 682.964C290.528 697.478 309.573 703.297 321.697 694.232C325.433 693.742 328.861 694.966 332.904 694.232C344.66 690.068 351.274 663.611 331.126 664.285C324.209 667.164 317.595 672.674 310.428 673.041C324.269 649.28 320.105 644.87 302.837 641.259C299.714 626.251 312.143 601.814 327.332 589.749C343.803 603.348 345.027 616.268 329.414 628.58C322.738 640.459 331.924 664.592 349.928 644.382L350.112 644.259ZM287.465 644.993C295.426 655.22 295.059 661.652 285.813 668.019C273.136 662.51 276.016 651.3 287.465 644.993Z" fill="#00496A"/>
<path fill-rule="evenodd" clip-rule="evenodd" d="M449.87 308.568L424.213 328.531C423.783 336.555 428.314 339.985 434.01 336.802C439.706 333.618 442.766 329.022 448.034 325.592C455.322 328.227 454.157 331.72 453.116 335.761C450.237 342.314 449.259 347.58 446.319 354.135C439.215 351.563 430.213 350.275 423.109 348.007C426.049 369.017 445.218 385.244 460.71 394.432L473.754 398.046C471.181 404.843 470.324 412.377 468.486 418.99C475.406 429.894 481.959 438.896 496.534 441.406C503.057 441.647 508.539 436.555 508.78 430.032C508.793 429.743 508.793 429.451 508.78 429.159H525.193C531.636 421.912 536.124 413.144 538.237 403.679C539.929 390.155 539.431 376.445 536.766 363.075H512.884L492.307 380.162C483.752 363.832 477.566 346.363 473.937 328.287C471.609 313.162 463.22 307.157 449.442 308.688L449.87 308.568ZM461.689 358.053C467.14 361.85 467.384 368.406 466.834 375.57C462.609 375.57 460.71 370.915 459.179 369.447C456.546 363.872 456.239 361.36 461.689 357.809V358.053ZM512.454 380.285C516.312 382 519.374 384.389 516.681 391.249C498.309 396.577 495.92 413.051 488.512 415.746C489.345 413.551 489.141 411.099 487.959 409.07C497.062 400.291 505.27 390.63 512.454 380.225V380.285ZM514.046 410.174C515.333 410.174 516.618 411.642 516.742 414.275C510.618 416.971 511.597 423.461 506.454 424.319C505.629 423.657 504.888 422.895 504.249 422.053C506.326 417.278 509.726 413.199 514.046 410.295V410.174Z" fill="#00496A"/>
<path fill-rule="evenodd" clip-rule="evenodd" d="M782.383 166.862C781.641 165.215 782.277 163.277 783.851 162.391C795.486 157.307 801.856 150.938 793.037 141.567C784.218 132.197 766.216 129.319 752.008 138.934C753.6 156.266 769.216 145.058 764.929 168.883C756.54 175.926 762.356 212.244 761.071 233.925C753.706 244.801 743.35 253.308 731.25 258.423C731.25 269.814 734.373 274.406 739.455 275.817L767.134 255.851C771.052 268.834 773.257 276.674 781.402 281.45C785.076 283.288 790.648 281.022 793.221 280.411C796.771 279 797.875 269.935 790.711 263.138C790.711 258.546 795.61 255.237 801.242 257.015C807.365 262.711 803.692 265.343 796.037 266.568C801.733 283.655 809.143 292.227 820.225 282.186C827.636 277.102 818.45 251.563 806.631 226.391C809.694 220.941 811.593 217.45 814.653 211.938C816.368 201.587 809.754 199.076 800.752 200.362C800.752 181.193 796.771 170.169 792.73 168.576C789.854 166.8 785.259 168.576 782.383 166.555V166.862ZM781.218 207.038L785.506 212.183L785.873 218.307H777.544C775.769 210.713 776.136 206.058 781.218 207.344V207.038ZM781.218 181.07L785.506 186.337L785.873 192.462H777.544C775.706 184.5 776.136 179.723 781.218 181.07Z" fill="#00496A"/>
<path fill-rule="evenodd" clip-rule="evenodd" d="M837.868 131.451C827.525 134.584 816.961 136.938 806.269 138.494C805.412 147.068 809.515 153.315 820.784 156.071C834.805 156.071 844.665 157.786 851.769 148.661C852.38 140.392 851.032 134.88 837.868 131.451Z" fill="#00496A"/>
<path fill-rule="evenodd" clip-rule="evenodd" d="M847.904 163.675L820.223 187.805L806.812 184.131C804.179 197.911 811.774 204.157 826.348 205.199L836.452 199.564C832.348 212.364 817.346 230.187 824.203 238.026C833.817 251.194 839.88 244.517 851.148 224.185C851.148 240.843 852.74 255.481 880.421 256.585C894.993 257.319 907.853 248.682 919.855 232.085C919.181 221.061 911.65 217.019 897.565 218.673C891.87 220.816 887.094 222.654 888.563 231.289C884.278 238.455 873.377 240.659 863.334 231.289C864.498 222.409 866.457 213.528 854.701 204.648C854.872 191.784 859.501 179.379 867.805 169.554C864.438 164.104 861.802 157.428 847.904 163.675Z" fill="#00496A"/>
<path fill-rule="evenodd" clip-rule="evenodd" d="M1249.07 133.778C1254.71 139.903 1259.54 146.027 1258.87 152.641L1217.84 153.928C1217.84 148.661 1213.19 144.435 1207.74 147.803C1188.94 161.828 1179.32 171.015 1178.83 182.529C1179.91 190.139 1186.8 195.544 1194.45 194.778C1208.9 186.326 1205.11 168.504 1216.13 167.156C1229.85 165.402 1243.7 164.829 1257.52 165.442C1261.69 174.313 1260.18 184.817 1253.67 192.144C1251.89 199.31 1251.09 212.232 1246.01 216.949C1232.23 219.276 1220.47 222.154 1219.19 233.791C1219.49 245.181 1226.84 247.573 1238.05 245.488C1230.27 256.268 1215.03 256.022 1202.23 259.145C1198.55 265.271 1199.41 276.662 1202.23 278.56C1219.62 278.56 1239.4 277.152 1256.73 277.396C1263.28 275.07 1265.54 262.452 1252.68 262.268C1237.38 260.309 1250.67 252.227 1256.05 246.775C1258.32 237.833 1258.99 229.687 1248.28 227.299C1246.56 222.828 1249.01 220.011 1255.44 218.847C1265.36 219.215 1275.04 219.337 1277.55 207.762C1271 200.229 1265.3 190.001 1274.3 182.406C1287.35 180.814 1299.9 181.855 1311.04 192.144C1319.01 196.86 1325.68 186.02 1322.74 180.447C1315.21 168.198 1312.76 155.153 1278.53 159.623C1280.85 144.312 1280 130.165 1256.36 123.856C1243.99 123.611 1246.99 128.878 1249.07 133.778Z" fill="#00496A"/>
<path fill-rule="evenodd" clip-rule="evenodd" d="M1229.48 173.041C1236.53 174.266 1241.73 178.43 1241.12 184.983C1239.4 200.356 1235 209.91 1225.2 212.972C1219.37 212.484 1215.02 207.416 1215.4 201.581C1221.59 192.883 1226.35 183.247 1229.48 173.041Z" fill="#00496A"/>
<path fill-rule="evenodd" clip-rule="evenodd" d="M1296.28 174.753C1288.98 168.991 1279.68 166.389 1270.44 167.527C1273.01 170.343 1275.77 172.303 1278.4 175.059C1283.49 174.63 1290.89 175.242 1296.28 174.753Z" fill="#00496A"/>
<path fill-rule="evenodd" clip-rule="evenodd" d="M1619.91 337.473C1613.96 352.971 1603.23 366.18 1589.3 375.2C1575.64 366.382 1565.6 361.36 1553.35 344.026C1547.34 343.607 1542.14 348.133 1541.72 354.138C1541.6 355.762 1541.85 357.394 1542.45 358.908L1571.29 382.978C1566.15 392.531 1559.04 391.43 1540.25 386.348C1522.73 405.333 1539.08 420.522 1559.72 414.826L1570.5 413.171C1573.74 428.056 1569.82 443.795 1569.52 458.616C1575.49 463.753 1584.5 463.072 1589.64 457.092C1590.36 456.247 1590.99 455.319 1591.5 454.328C1598.24 438.589 1592.18 424.319 1577.17 410.783C1581.29 404.229 1587.29 399.064 1594.38 395.961L1622.61 417.459C1629.81 418.171 1636.23 412.907 1636.94 405.705C1637.02 404.848 1637.02 403.985 1636.94 403.128C1633.33 392.715 1623.22 385.367 1607.79 380.652L1635.47 356.152C1637.49 344.58 1631.73 338.758 1619.91 337.473Z" fill="#00496A"/>
<path fill-rule="evenodd" clip-rule="evenodd" d="M1823.36 591.414C1804.99 601.701 1790.35 613.032 1784.04 626.568C1777.37 629.568 1776.33 621.911 1776.08 612.725C1727.1 611.257 1729.42 623.81 1728.93 635.571C1731.2 645.368 1737.57 647.819 1752.82 635.08C1756.92 630.672 1764.45 631.897 1773.45 635.571C1790.29 648.186 1806.03 666.194 1822.44 681.93C1820.73 683.095 1818.71 681.563 1816.74 682.604C1801.74 674.276 1788.58 656.148 1776.27 646.778C1766.04 648.74 1759 652.534 1756.67 659.027C1760.1 672.317 1769.41 673.972 1779.51 673.972L1770.45 677.155L1763.59 684.629L1741.97 668.643C1733.95 666.928 1733.46 671.092 1734.02 676.114L1752.39 699.02L1739.59 702.694C1733.1 695.59 1726.56 688.504 1719.99 681.443C1715.99 690.359 1715.61 700.488 1718.95 709.677C1725.86 718.453 1736.44 723.543 1747.61 723.457L1770.39 712.86C1773.38 721.594 1781.33 727.682 1790.54 728.295C1796.23 728.295 1798.87 724.865 1798.5 718.74L1784.84 693.141L1810.31 690.445L1810.87 685.179C1817.66 699.754 1825.14 711.145 1837.87 717.087C1847.73 715.493 1863.41 705.513 1842.16 680.339C1842.46 677.339 1842.77 674.215 1843.08 671.336C1859.06 670.848 1875.53 670.969 1884.04 660.496C1886.68 651.923 1892.25 643.162 1875.59 635.447C1876.7 628.834 1881.72 623.199 1878.84 615.604C1866.16 612.421 1859.12 618.177 1850.18 619.829C1841.18 617.136 1858.57 605.988 1850.73 596.679C1837.63 596.679 1812.58 621.728 1807.25 627.67C1806.52 628.59 1805.05 626.998 1803.09 625.464L1834.63 596.679C1831.49 593.999 1827.68 592.221 1823.6 591.537L1823.36 591.414ZM1836.59 626.935C1835.54 634.773 1825.93 634.713 1819.62 634.59C1817.48 630.856 1826.48 626.935 1836.59 626.935ZM1848.83 640.836C1848.83 650.636 1837.44 652.657 1831.14 652.534C1828.99 648.86 1832.6 645 1848.83 640.836ZM1863.41 640.836C1869.95 639.232 1876.62 642.979 1878.65 649.411C1876.82 652.046 1871.98 652.964 1864.33 652.23C1864.45 647.943 1863.9 644.694 1863.53 640.653L1863.41 640.836Z" fill="#00496A"/>
<path d="M158.203 1234.48L154.835 1222.23L193.047 1183.04L195.925 1180.09L198.681 1177.28L146.507 1191L143.69 1180.71L214.909 1161.6L218.705 1175.81L183.433 1212L177.003 1218.56L226.605 1205.33L229.422 1215.5L158.203 1234.48ZM190.169 1332.47L185.331 1319.12L199.783 1307.36L190.107 1280.72L171.736 1281.27L167.756 1270.62L245.342 1268.47L250.975 1283.78L190.169 1332.23V1332.47ZM208.54 1300.63L235.545 1278.94L200.946 1280.11L208.295 1300.32L208.54 1300.63ZM229.728 1417.6L224.278 1405.9L254.895 1360.65C255.386 1359.97 256.18 1358.87 257.221 1357.28L259.427 1354.03L210.438 1376.88L205.907 1367.14L272.714 1335.96L278.84 1349.31L250.364 1391.02C250.364 1391.45 248.405 1393.96 245.159 1398.68L291.76 1377L296.168 1386.49L229.728 1417.6ZM295.68 1477.32L301.803 1488.22C295.816 1491.71 288.765 1492.9 281.963 1491.59C274.952 1490.16 268.824 1485.93 264.999 1479.89C261.396 1475.22 259.532 1469.43 259.733 1463.54C260.206 1457.83 262.193 1452.35 265.489 1447.67C269.163 1442.29 273.815 1437.63 279.207 1433.96C286.959 1427.96 296.477 1424.71 306.272 1424.71C314.95 1425.01 322.911 1429.6 327.523 1436.96C331.551 1442.34 333.309 1449.09 332.421 1455.76C331.086 1462.9 327.375 1469.37 321.888 1474.13L313.743 1464.82C321.583 1456.66 323.256 1449.34 318.764 1442.9C316.046 1438.9 311.303 1436.79 306.518 1437.45C299.648 1438.44 293.163 1441.22 287.719 1445.53C281.701 1449.21 276.823 1454.49 273.634 1460.78C271.54 1465.17 271.985 1470.35 274.796 1474.32C276.966 1477.47 280.421 1479.48 284.228 1479.83C288.295 1480.28 292.401 1479.4 295.924 1477.32H295.68ZM338.545 1577.82L395.8 1531.46L387.472 1521.17L363.714 1540.09L345.772 1518.35L369.346 1499.24L360.957 1488.95L303.639 1535.32L312.03 1545.66L336.892 1525.51L354.651 1547.38L329.726 1567.53L338.117 1577.82H338.545ZM409.457 1652.85L399.597 1642.62L408.109 1626.2L388.636 1605.75L371.735 1613.59L364.141 1605.62L434.136 1572.06L445.525 1583.82L409.457 1652.85ZM413.254 1616.1L429.421 1585.47L398.373 1600.6L413.131 1616.22L413.254 1616.1ZM481.778 1712.25L526.174 1653.33L517.785 1647.21L487.167 1688.24C487.778 1682.55 488.145 1679.49 488.208 1679.06L493.72 1628.84L481.655 1619.71L437.626 1678.81L446.138 1685.3L478.655 1642.43C478.655 1644.21 478.288 1645.56 478.225 1646.35C478.225 1648.25 477.858 1649.6 477.797 1650.46L471.674 1704.9L481.962 1712.68L481.778 1712.25ZM585.268 1736.75L565.304 1768.66L560.345 1765.6L562.121 1755C554.954 1759.01 546.123 1758.56 539.401 1753.84C531.475 1749.48 526.493 1741.2 526.358 1732.16C526.31 1722.79 529.013 1713.6 534.135 1705.76C539.001 1697.44 546.5 1690.98 555.444 1687.39C563.916 1684.06 573.487 1685.16 580.98 1690.33C586.867 1693.62 591.253 1699.06 593.229 1705.51C595.035 1711.55 594.756 1718.03 592.432 1723.89L581.594 1719.48C585.074 1711.47 581.408 1702.16 573.406 1698.68C569.566 1697.01 565.221 1696.94 561.324 1698.47C555.08 1701.43 549.978 1706.35 546.812 1712.5C536.891 1728.24 536.952 1739.26 546.812 1745.45C550.413 1747.85 554.886 1748.57 559.058 1747.41C563.446 1746.16 567.165 1743.23 569.408 1739.26L556.485 1731.12L562.181 1722.11L585.635 1736.81L585.268 1736.75ZM694.82 1833.45L682.574 1828.25L694.82 1798.79L668.917 1787.83L656.671 1817.29L644.422 1812.08L673.205 1744.22L685.451 1749.43L673.632 1777.29L699.535 1788.32L711.354 1760.39L723.603 1765.6L694.82 1833.45ZM791.82 1868L778.409 1863.4V1845.03L751.588 1835.78L740.441 1850.54L729.726 1846.81L776.878 1785.07L792.31 1790.4L791.697 1868.18L791.82 1868ZM778.653 1833.64L779.204 1799.03L758.322 1826.66L778.653 1833.64ZM880.551 1886.37L867.815 1884.1L848.402 1832.9C848.402 1832.11 847.667 1830.82 846.994 1829.05L845.585 1825.37L836.216 1878.59L825.684 1876.7L838.481 1804.06L852.933 1806.63L870.815 1853.91C870.815 1854.28 872.039 1857.15 874.121 1862.49L883 1811.96L893.351 1813.73L880.551 1886.37ZM983.737 1861.02L980.49 1898.56L974.367 1898.07L971.181 1887.78C966.615 1894.64 958.518 1898.26 950.363 1897.09C941.343 1896.85 933.167 1891.74 928.991 1883.74C924.655 1875.41 922.868 1866 923.846 1856.67C924.386 1847.01 928.133 1837.8 934.5 1830.51C940.52 1823.69 949.548 1820.32 958.568 1821.51C965.254 1821.84 971.568 1824.7 976.203 1829.54C980.576 1834.13 983.277 1840.07 983.857 1846.38L972.222 1847.36C972.039 1839.45 965.792 1833.01 957.894 1832.6C952.897 1832.06 947.956 1834 944.667 1837.8C940.417 1843.27 938.079 1849.99 937.993 1856.91C936.399 1875.29 941.36 1885.27 952.995 1886.25C957.22 1886.75 961.457 1885.41 964.631 1882.58C968.04 1879.4 970.024 1874.98 970.14 1870.32L954.954 1869.04L955.935 1858.32L983.49 1860.77L983.737 1861.02ZM1083 1899.6H1068.36L1052.81 1862.06L1038.54 1880.98V1899.36H1025.5V1825.86H1038.79V1864.69C1040.5 1862.06 1041.67 1860.22 1042.46 1859.24L1066.96 1825.92H1080.37L1062.85 1850.42L1083.43 1899.91L1083 1899.6ZM1142.09 1894.7C1133.15 1896.47 1123.92 1893.56 1117.6 1886.98C1110.92 1879.93 1106.77 1870.86 1105.78 1861.2C1104.05 1851.61 1105.76 1841.72 1110.62 1833.27C1115.06 1825.53 1122.93 1820.37 1131.81 1819.37C1140.57 1817.81 1149.54 1820.65 1155.81 1826.96C1162.68 1833.86 1167 1842.89 1168.06 1852.56C1169.89 1862.34 1168.2 1872.46 1163.28 1881.1C1158.76 1888.75 1150.87 1893.8 1142.03 1894.7H1142.09ZM1140.69 1884.1C1145.41 1883.47 1149.55 1880.66 1151.89 1876.51C1154.91 1869.58 1155.58 1861.86 1153.79 1854.52C1153.2 1847.68 1150.86 1841.1 1146.99 1835.41C1143.86 1831.13 1138.55 1829.03 1133.34 1830.02C1122.07 1831.62 1117.72 1841.48 1120.29 1859.61C1120.83 1866.61 1123.29 1873.32 1127.4 1879.02C1130.55 1883.04 1135.66 1884.99 1140.69 1884.1ZM1274 1867.57L1261.45 1870.51L1223.54 1830.88L1220.72 1827.94L1218.03 1825.07L1230.28 1877.67L1219.87 1880.12L1203.27 1808.28L1217.6 1804.92L1252.57 1841.66L1258.69 1848.28L1247.18 1798.3L1257.34 1795.91L1273.94 1867.75L1274 1867.57ZM1355.01 1797.87L1369.77 1832.54L1364.32 1834.86L1356.73 1827.27C1355.92 1835.48 1350.46 1842.48 1342.71 1845.28C1334.61 1849.27 1324.99 1848.59 1317.54 1843.5C1309.81 1838.19 1303.82 1830.71 1300.33 1822C1296.28 1813.23 1295.27 1803.36 1297.45 1793.95C1299.55 1785.1 1305.94 1777.88 1314.48 1774.72C1320.53 1771.85 1327.46 1771.41 1333.83 1773.5C1339.82 1775.49 1344.97 1779.43 1348.46 1784.71L1338.85 1791.2C1334.94 1784.36 1326.42 1781.7 1319.31 1785.07C1314.64 1786.95 1311.19 1791 1310.07 1795.91C1308.99 1802.69 1310.13 1809.62 1313.31 1815.69C1320.54 1832.78 1329.6 1839.09 1340.32 1834.56C1344.28 1832.99 1347.39 1829.81 1348.83 1825.8C1350.35 1821.49 1350.09 1816.75 1348.09 1812.63L1334.07 1818.76L1329.91 1808.9L1355.38 1798.12L1355.01 1797.87ZM1462.79 1700.74L1488.57 1740.48C1491.49 1744.55 1493.57 1749.15 1494.7 1754.02C1495.39 1758.22 1494.65 1762.53 1492.61 1766.27C1490.21 1770.96 1486.54 1774.89 1482.02 1777.6C1477.82 1780.58 1472.93 1782.43 1467.81 1782.99C1463.64 1783.35 1459.47 1782.34 1455.93 1780.11C1451.93 1777.24 1448.54 1773.59 1445.95 1769.39L1419.68 1728.85L1431.07 1721.5L1456.85 1761.19C1460.34 1766.64 1463.83 1769.45 1467.2 1769.7C1470.61 1769.92 1473.99 1768.99 1476.81 1767.07C1479.97 1765.31 1482.33 1762.39 1483.37 1758.92C1483.92 1754.41 1482.59 1749.87 1479.69 1746.36L1454.16 1706.5L1463.04 1700.74H1462.79ZM1583.49 1703.25L1538.11 1645.19L1529.84 1651.31L1561.5 1691.79L1552.87 1688.43L1505.78 1670.05L1494.2 1679.12L1539.64 1737.18L1548.03 1730.63L1514.78 1688.06L1518.46 1689.47L1522.31 1691L1573.32 1710.84L1583.49 1702.88V1703.25ZM1627.95 1663.81L1618.21 1672.87L1567.93 1618.98L1577.67 1609.91L1627.95 1663.81ZM1678.9 1610.34L1639.52 1543.89L1632.36 1552.34L1662.97 1602.99L1609.7 1577.76L1600.33 1588.17L1670.32 1620.63L1679.39 1610.59L1678.9 1610.34ZM1746.26 1526.37L1717.47 1564.59L1658.63 1520.19L1687.16 1482.34L1695.92 1488.89L1675.41 1516.15L1691.33 1528.39L1707.86 1506.47L1716.37 1512.59L1699.9 1534.52L1716.37 1546.77L1737.19 1519.08L1746.32 1526.01L1746.26 1526.37ZM1799.47 1443.57L1765 1437.45C1767.05 1428.91 1763.13 1420.06 1755.44 1415.83C1750.6 1412.53 1744.58 1411.45 1738.91 1412.89C1732.22 1415.2 1726.66 1420 1723.42 1426.3L1706.45 1453.43L1768.98 1492.51L1776.02 1481.24L1750.36 1465.19L1760.22 1449.33L1792 1455.45L1799.47 1443.51V1443.57ZM1741.3 1459.37L1722.5 1447.61L1731.81 1432.67C1733.48 1429.59 1736.23 1427.24 1739.52 1426.05C1742.37 1425.14 1745.49 1425.59 1747.97 1427.28C1750.75 1428.79 1752.67 1431.51 1753.18 1434.63C1753.48 1438.46 1752.36 1442.27 1750.05 1445.35L1741.3 1459.37ZM1795.18 1414.42L1798.61 1401.68C1805.78 1403.64 1811.78 1400.03 1816.44 1390.78C1818.41 1387.48 1819.27 1383.64 1818.88 1379.81C1818.61 1377.01 1816.92 1374.54 1814.41 1373.26C1812.64 1372.35 1810.63 1372.01 1808.66 1372.28C1805.86 1373 1803.41 1374.7 1801.74 1377.06L1792.06 1387.96C1789.59 1390.92 1786.65 1393.47 1783.37 1395.5C1780.73 1396.87 1777.77 1397.53 1774.79 1397.39C1771.57 1397.3 1768.41 1396.48 1765.55 1395.01C1759.96 1392.39 1755.96 1387.28 1754.77 1381.22C1753.51 1374.58 1754.64 1367.71 1757.95 1361.81C1760.54 1356.45 1764.49 1351.87 1769.4 1348.52C1773.67 1345.4 1779.06 1344.26 1784.22 1345.4L1781.28 1358.07C1775.34 1357.29 1769.66 1360.76 1767.63 1366.4C1765.88 1369.29 1765.17 1372.67 1765.61 1376.02C1765.96 1378.67 1767.61 1380.97 1770.02 1382.14C1773.75 1384.1 1777.92 1382.14 1782.57 1377.06L1791.02 1367.32C1794.56 1362.45 1799.7 1358.99 1805.53 1357.52C1809.9 1356.9 1814.35 1357.65 1818.27 1359.67C1824.37 1362.47 1828.69 1368.11 1829.78 1374.73C1830.88 1382.23 1829.46 1389.87 1825.74 1396.47C1822.84 1402.51 1818.41 1407.69 1812.88 1411.48C1807.69 1414.99 1801.27 1416.15 1795.18 1414.66V1414.42ZM1858.63 1326.84L1853.42 1339.09L1785.57 1310.24L1790.72 1297.99L1858.63 1326.78V1326.84ZM1884.65 1260.08L1879.08 1273.19L1821.7 1248.69L1814.05 1266.76L1803.58 1262.29L1824.46 1213.29L1834.93 1217.7L1827.27 1236.07L1884.65 1260.57V1260.08ZM1914.05 1173.42L1909.7 1186.89L1880.12 1177.22L1831.87 1188L1836.83 1172.68L1871.12 1165.46L1847.42 1140.1L1851.34 1127.86L1884.47 1163.74L1914.05 1173.42Z" fill="#00496A"/>
</svg>
